<?xml version="1.0" standalone="no"?>
<!DOCTYPE svg PUBLIC "-//W3C//DTD SVG 20010904//EN"
 "http://www.w3.org/TR/2001/REC-SVG-20010904/DTD/svg10.dtd">
<svg version="1.0" xmlns="http://www.w3.org/2000/svg"
 width="738.000000pt" height="738.000000pt" viewBox="0 0 738.000000 738.000000"
 preserveAspectRatio="xMidYMid meet">
<metadata>
Created by potrace 1.14, written by Peter Selinger 2001-2017
</metadata>
<g transform="translate(0.000000,738.000000) scale(0.100000,-0.100000)"
fill="#000000" stroke="none">
<path d="M0 3690 l0 -3690 3690 0 3690 0 0 3690 0 3690 -3690 0 -3690 0 0
-3690z m3555 2210 c28 -6 68 -13 90 -16 112 -15 260 -74 375 -149 67 -43 185
-156 206 -197 8 -16 24 -38 35 -49 10 -10 19 -25 19 -33 0 -7 7 -20 16 -27 16
-13 39 -58 36 -71 -1 -5 2 -8 8 -8 5 0 15 -18 21 -40 7 -22 16 -40 21 -40 4 0
8 -9 8 -19 0 -11 6 -26 13 -33 6 -7 13 -20 15 -28 2 -8 8 -16 13 -18 5 -2 9
-10 9 -18 0 -8 5 -14 11 -14 5 0 7 -4 4 -10 -3 -6 4 -10 17 -10 18 0 20 -2 8
-10 -12 -8 -9 -10 13 -10 16 0 26 -4 23 -9 -4 -5 0 -11 6 -14 17 -5 39 3 33
12 -6 10 27 7 44 -3 9 -6 17 -3 23 8 5 9 16 16 25 16 9 0 13 3 10 7 -4 3 11
17 33 30 22 13 40 28 40 34 0 5 8 9 18 9 13 0 14 2 3 9 -11 7 -7 13 15 27 33
22 67 54 57 54 -4 0 6 13 22 30 15 16 33 27 38 23 6 -3 7 -1 3 5 -4 7 -2 12 4
12 6 0 8 5 4 12 -5 8 -2 9 9 5 9 -3 16 -3 15 1 -2 13 14 42 22 37 10 -6 19 17
36 94 28 131 108 192 222 168 96 -19 222 -181 257 -328 30 -128 15 -349 -40
-576 -86 -359 -353 -860 -721 -1349 -525 -700 -1195 -1324 -1669 -1554 -161
-78 -206 -93 -295 -94 -62 -1 -85 4 -134 27 -166 77 -349 313 -431 556 -55
164 -87 443 -67 593 6 51 6 65 -3 58 -7 -5 -16 -6 -20 -2 -5 4 -5 1 0 -7 5 -9
3 -12 -6 -9 -8 3 -13 10 -12 16 2 7 -4 9 -14 5 -10 -4 -14 -2 -9 5 3 6 2 13
-3 16 -5 3 -5 24 -1 48 5 24 14 70 20 103 6 33 12 70 13 83 1 12 6 22 11 22 5
0 7 3 4 6 -4 3 4 35 17 70 13 36 24 67 24 69 0 3 8 21 16 41 8 20 15 41 15 46
0 6 13 38 29 72 16 33 52 109 80 169 95 198 248 430 339 511 13 12 37 33 53
49 16 15 36 27 44 27 8 0 15 5 15 10 0 6 7 10 16 10 8 0 12 5 9 10 -3 6 -2 10
3 10 5 0 20 10 34 23 68 60 169 128 180 121 4 -3 8 0 8 5 0 6 7 11 16 11 9 0
12 5 8 12 -5 7 -3 8 5 4 16 -10 73 13 65 26 -3 5 -13 3 -23 -6 -10 -9 -22 -16
-27 -16 -27 0 45 34 79 37 22 2 41 4 42 6 0 1 28 34 61 72 179 207 294 399
294 490 0 81 -217 47 -673 -105 -131 -44 -270 -85 -310 -91 -84 -13 -210 -6
-287 17 -88 26 -227 104 -295 167 -69 62 -88 101 -87 173 2 90 54 142 211 215
58 27 120 56 136 65 17 9 48 26 70 38 22 12 42 24 43 29 2 4 10 7 18 7 7 0 28
8 46 19 48 26 362 136 433 152 33 7 65 14 70 15 38 11 190 36 239 40 33 2 60
5 62 7 7 7 357 -4 399 -13z"/>
<path d="M4196 5083 c-70 -282 -216 -513 -745 -1173 -378 -471 -498 -640 -607
-854 -82 -159 -105 -232 -111 -351 -5 -99 9 -209 28 -220 14 -9 70 28 64 43
-2 7 -1 11 3 8 8 -5 38 82 34 97 -1 4 2 7 7 7 5 0 20 23 32 50 12 28 25 50 29
50 3 0 12 16 20 34 7 19 16 34 19 33 3 -1 7 1 9 6 1 4 11 16 22 27 11 11 20
27 20 36 0 8 5 12 10 9 6 -3 10 1 10 9 0 9 5 16 10 16 6 0 10 6 10 14 0 8 8
17 17 20 15 6 15 8 3 16 -13 8 -13 10 0 10 20 0 53 38 45 50 -4 6 1 10 9 10 9
0 16 5 16 11 0 5 11 22 25 37 67 72 84 95 79 103 -3 5 2 9 10 9 9 0 16 5 16
11 0 7 8 18 18 25 9 7 17 18 17 26 1 7 7 12 14 10 7 -1 10 2 7 7 -4 5 4 17 16
25 12 9 18 16 13 16 -6 0 -2 5 8 11 9 6 14 15 11 21 -5 8 -1 9 11 4 14 -5 16
-4 6 8 -9 11 -5 17 24 30 20 10 33 21 30 27 -4 5 1 16 9 25 9 8 16 13 16 9 0
-4 7 1 16 9 8 9 13 20 10 24 -3 5 6 14 20 21 14 6 23 15 20 19 -3 5 13 25 35
46 21 21 39 45 39 53 0 8 5 11 10 8 6 -3 10 1 10 9 0 8 9 20 20 26 11 6 20 18
20 26 0 9 5 12 12 8 8 -5 9 -2 5 9 -4 10 -2 16 6 14 7 -1 12 5 12 13 0 8 15
30 32 48 18 19 33 38 33 44 0 5 5 6 10 3 6 -3 10 -2 10 4 0 5 13 24 29 42 17
18 29 36 28 40 -1 4 7 15 18 23 13 10 15 15 6 16 -19 0 6 30 26 30 8 0 11 5 8
10 -3 6 -2 10 2 10 5 0 17 17 28 38 11 20 28 46 38 57 10 11 29 43 44 72 14
29 29 53 33 53 4 0 11 7 14 16 3 8 2 12 -4 9 -17 -11 -11 3 11 24 11 10 21 25
23 32 1 8 16 42 34 77 17 34 32 64 32 67 0 3 0 10 0 15 0 6 8 10 18 11 10 0
12 3 4 6 -9 3 -7 12 8 33 11 15 20 38 20 49 0 12 4 21 9 21 5 0 8 8 7 18 -2 9
3 26 9 37 7 11 11 28 10 38 -2 9 0 17 4 17 6 0 8 13 14 107 1 24 4 43 7 43 5
0 5 69 0 83 -6 18 -5 33 5 39 6 5 5 8 -3 8 -7 0 -11 4 -7 9 3 5 1 12 -5 16 -5
3 -10 22 -10 41 0 19 -5 34 -11 34 -6 0 -9 8 -7 18 3 10 -1 23 -9 30 -7 7 -11
17 -8 23 4 5 2 9 -3 9 -5 0 -17 -30 -26 -67z"/>
</g>
</svg>
