<svg width="42" height="33" viewBox="0 0 42 33" fill="none" xmlns="http://www.w3.org/2000/svg">
<path d="M34.7121 3.57499C32.054 2.35483 29.2488 1.48475 26.3667 0.986522C26.3406 0.981638 26.3135 0.985134 26.2894 0.996513C26.2654 1.00789 26.2455 1.02657 26.2326 1.0499C25.8722 1.69104 25.4729 2.52727 25.1935 3.18446C22.0421 2.71262 18.9068 2.71262 15.8202 3.18446C15.5407 2.51258 15.1269 1.69104 14.7649 1.0499C14.7515 1.02711 14.7316 1.00888 14.7076 0.997605C14.6837 0.98633 14.657 0.982527 14.6308 0.986693C11.7485 1.48376 8.9431 2.35377 6.28528 3.57482C6.26255 3.58453 6.24339 3.60107 6.23045 3.62214C0.915138 11.5632 -0.541045 19.3089 0.17338 26.9587C0.1754 26.9774 0.181158 26.9955 0.190313 27.012C0.199469 27.0284 0.211835 27.0429 0.22668 27.0545C3.73355 29.63 7.13057 31.1934 10.4646 32.2297C10.4905 32.2375 10.5181 32.2371 10.5439 32.2287C10.5696 32.2202 10.5921 32.2042 10.6084 32.1826C11.397 31.1056 12.0999 29.9699 12.7028 28.7758C12.7111 28.7595 12.7158 28.7415 12.7167 28.7232C12.7175 28.7049 12.7145 28.6866 12.7078 28.6696C12.7011 28.6525 12.6908 28.6371 12.6777 28.6243C12.6646 28.6114 12.649 28.6016 12.6317 28.5952C11.5165 28.1723 10.4548 27.6565 9.4334 27.0709C9.41477 27.06 9.39913 27.0446 9.38785 27.0262C9.37656 27.0078 9.36999 26.9868 9.3687 26.9653C9.36742 26.9437 9.37147 26.9222 9.38049 26.9025C9.38951 26.8829 9.40322 26.8658 9.42042 26.8527C9.63533 26.6916 9.8504 26.5242 10.0556 26.3549C10.0738 26.3399 10.0959 26.3302 10.1193 26.3271C10.1427 26.3239 10.1666 26.3273 10.1881 26.337C16.8981 29.4005 24.1623 29.4005 30.793 26.337C30.8146 26.3267 30.8387 26.3228 30.8624 26.3257C30.8862 26.3285 30.9086 26.3381 30.9271 26.3532C31.1325 26.5223 31.3474 26.6916 31.564 26.8527C31.5812 26.8657 31.595 26.8827 31.6042 26.9022C31.6133 26.9217 31.6175 26.9432 31.6164 26.9647C31.6153 26.9863 31.6089 27.0072 31.5978 27.0257C31.5867 27.0442 31.5712 27.0596 31.5527 27.0707C30.5309 27.6675 29.4606 28.1769 28.353 28.5935C28.3358 28.6001 28.3202 28.6102 28.3072 28.6233C28.2942 28.6363 28.2841 28.6519 28.2775 28.6691C28.2709 28.6863 28.2681 28.7047 28.2691 28.7231C28.2701 28.7415 28.275 28.7595 28.2835 28.7758C28.8992 29.9682 29.6022 31.1039 30.3762 32.1809C30.392 32.2031 30.4144 32.2198 30.4402 32.2285C30.4661 32.2373 30.494 32.2377 30.52 32.2297C33.8701 31.1933 37.2671 29.6298 40.774 27.0545C40.7891 27.0435 40.8017 27.0294 40.8109 27.0131C40.8201 26.9968 40.8257 26.9788 40.8274 26.9602C41.6823 18.1162 39.3955 10.4339 34.7654 3.62368C34.7541 3.60155 34.7351 3.58422 34.7121 3.57482V3.57499ZM13.7047 22.3007C11.6846 22.3007 10.02 20.446 10.02 18.1683C10.02 15.8907 11.6524 14.036 13.7049 14.036C15.7734 14.036 17.4217 15.9069 17.3895 18.1684C17.3895 20.446 15.7571 22.3007 13.7047 22.3007V22.3007ZM27.3284 22.3007C25.3083 22.3007 23.6437 20.446 23.6437 18.1683C23.6437 15.8907 25.2758 14.036 27.3284 14.036C29.3968 14.036 31.0452 15.9069 31.0129 18.1684C31.0129 20.446 29.3968 22.3007 27.3284 22.3007V22.3007Z" fill="white"/>
</svg>
