<svg width="1728" height="1000" viewBox="0 0 1728 1000" fill="none" xmlns="http://www.w3.org/2000/svg">
<g clip-path="url(#clip0_407_346)">
<g style="mix-blend-mode:color-dodge" opacity="0.3" filter="url(#filter0_f_407_346)">
<ellipse cx="850.474" cy="453.406" rx="568.474" ry="250.406" fill="#07E0FE"/>
</g>
<g style="mix-blend-mode:color-dodge" filter="url(#filter1_f_407_346)">
<path d="M370.84 467.416C368.74 463.816 366.94 456.916 366.94 450.016C366.94 405.616 452.44 342.016 452.44 302.116C452.44 286.516 439.84 275.716 414.94 275.716C390.64 275.716 358.54 283.816 334.54 296.116C332.44 297.316 332.74 298.816 333.94 300.016C337.24 303.316 341.74 306.016 345.94 307.816C352.54 310.516 361.54 310.216 368.14 307.816C381.64 303.016 403.24 295.516 414.64 295.516C423.04 295.516 427.84 299.716 427.84 306.616C427.84 337.216 348.34 386.416 348.34 441.616C348.34 463.816 356.44 480.316 367.84 489.616C372.64 494.116 376.24 494.416 384.04 491.116C429.94 472.216 512.74 378.916 522.94 322.216C525.04 309.316 526.84 295.516 516.64 287.116C515.14 285.916 514.24 286.516 513.94 288.316C504.94 352.216 414.34 456.316 380.14 469.816C375.34 471.916 373.24 471.316 370.84 467.416Z" stroke="#F9E9C2" stroke-width="15.2007" stroke-linecap="round" stroke-linejoin="round"/>
<path d="M569.046 440.416C571.446 437.416 571.446 433.516 570.246 429.916C569.646 428.116 568.446 428.116 567.246 429.616C558.846 440.416 536.946 465.016 511.446 465.016C501.546 465.016 496.746 458.716 497.346 450.316C497.346 448.516 497.646 446.716 498.246 444.916C530.046 446.116 555.246 427.516 556.446 411.016C557.046 402.316 551.646 396.316 539.946 396.316C506.646 396.316 471.546 430.516 471.546 457.216C471.546 472.216 482.046 483.016 501.246 483.016C534.546 483.016 559.146 453.316 569.046 440.416ZM500.946 438.016C508.446 422.716 525.246 407.716 534.246 407.716C536.946 407.716 537.246 410.116 536.346 412.516C533.046 420.916 519.546 433.516 500.946 438.016Z" stroke="#F9E9C2" stroke-width="15.2007" stroke-linecap="round" stroke-linejoin="round"/>
<path d="M661.242 440.416C663.642 437.416 663.642 433.516 662.442 429.916C661.842 428.116 660.642 427.816 659.442 429.616C646.242 446.416 631.842 460.216 616.542 472.516C621.042 466.216 624.942 460.516 627.942 455.116C630.642 450.316 632.142 447.016 630.342 443.416C629.142 441.016 627.342 438.916 625.242 437.416C622.842 435.616 621.342 435.316 619.242 437.116C611.142 444.016 597.342 456.916 587.142 456.916C582.942 456.916 581.142 454.816 581.142 450.916C581.142 434.116 611.742 406.816 622.542 406.816C624.042 406.816 624.942 407.416 624.942 408.916C624.642 412.216 621.042 415.516 621.042 420.016C621.042 423.616 624.342 425.416 629.142 425.416C637.542 425.416 647.442 416.716 647.442 407.416C647.442 400.516 642.642 394.516 631.542 394.516C597.942 394.516 550.542 433.216 550.542 462.616C550.542 474.616 559.242 479.116 568.242 479.116C582.042 479.116 599.142 467.116 612.342 452.716C591.942 483.016 550.542 524.716 535.842 552.316C529.242 564.616 528.942 571.816 532.842 576.616C534.942 579.616 537.342 581.416 539.742 582.916C542.442 584.416 543.942 583.816 545.442 581.116C562.842 546.316 588.642 513.316 614.142 489.016C628.842 475.216 647.442 457.816 661.242 440.416Z" stroke="#F9E9C2" stroke-width="15.2007" stroke-linecap="round" stroke-linejoin="round"/>
<path d="M757.735 440.416C759.835 437.416 760.435 433.216 758.635 429.916C757.735 428.116 757.135 428.116 755.935 429.616C746.335 441.916 728.935 459.916 717.535 459.916C715.735 459.916 714.535 458.716 714.535 456.916C714.535 452.716 719.935 445.816 723.835 439.216C726.535 434.416 724.135 430.216 721.735 427.216C719.335 424.216 717.235 424.516 715.135 426.616C710.635 431.116 704.635 438.316 698.335 444.016C689.635 452.416 680.335 458.716 674.335 458.716C671.635 458.716 669.535 457.516 669.535 453.316C669.535 435.916 702.835 403.516 714.235 403.516C715.435 403.516 716.035 404.116 716.035 405.016C716.035 407.716 713.935 410.716 713.935 413.716C713.935 417.316 716.635 420.316 723.535 419.716C732.235 418.816 738.235 409.516 738.535 402.016C738.535 397.216 733.735 392.716 723.235 392.716C686.635 392.716 638.635 439.216 638.635 467.116C638.635 476.716 645.235 480.916 652.735 480.916C664.735 480.916 679.435 471.016 691.135 459.616C688.435 470.116 694.735 477.616 705.535 477.616C727.435 477.616 747.535 453.316 757.735 440.416Z" stroke="#F9E9C2" stroke-width="15.2007" stroke-linecap="round" stroke-linejoin="round"/>
<path d="M829.814 440.416C832.214 437.416 832.214 433.816 830.714 429.916C830.114 428.416 829.214 428.116 828.014 429.616C818.714 441.016 812.414 447.916 800.114 454.216C808.214 438.916 801.314 415.816 806.714 402.316C814.514 399.316 818.414 395.416 817.514 392.116C816.314 388.816 807.314 387.616 796.214 391.816C781.814 397.216 771.014 410.416 756.014 429.616C753.614 432.616 753.614 436.516 754.814 440.116C755.714 441.916 756.614 441.916 757.814 440.416C771.614 422.716 779.114 414.616 786.314 409.816C780.314 423.916 783.614 448.816 775.514 459.316C758.714 459.916 745.814 466.816 745.814 474.016C745.814 478.816 751.214 481.816 759.914 481.816C771.614 481.816 783.314 477.316 790.814 468.916C807.914 462.916 819.614 453.616 829.814 440.416Z" stroke="#F9E9C2" stroke-width="15.2007" stroke-linecap="round" stroke-linejoin="round"/>
<path d="M909.903 467.416C907.803 463.816 906.003 456.916 906.003 450.016C906.003 405.616 991.503 342.016 991.503 302.116C991.503 286.516 978.903 275.716 954.003 275.716C929.703 275.716 897.603 283.816 873.603 296.116C871.503 297.316 871.803 298.816 873.003 300.016C876.303 303.316 880.803 306.016 885.003 307.816C891.603 310.516 900.603 310.216 907.203 307.816C920.703 303.016 942.303 295.516 953.703 295.516C962.103 295.516 966.903 299.716 966.903 306.616C966.903 337.216 887.403 386.416 887.403 441.616C887.403 463.816 895.503 480.316 906.903 489.616C911.703 494.116 915.303 494.416 923.103 491.116C969.003 472.216 1051.8 378.916 1062 322.216C1064.1 309.316 1065.9 295.516 1055.7 287.116C1054.2 285.916 1053.3 286.516 1053 288.316C1044 352.216 953.403 456.316 919.203 469.816C914.403 471.916 912.303 471.316 909.903 467.416Z" stroke="#F9E9C2" stroke-width="15.2007" stroke-linecap="round" stroke-linejoin="round"/>
<path d="M1079.84 361.816C1067.24 361.816 1055.24 377.716 1055.24 387.916C1055.24 394.216 1058.54 398.116 1064.54 398.116C1076.54 398.116 1088.84 384.316 1088.84 371.716C1088.84 365.716 1085.84 361.816 1079.84 361.816ZM1009.94 461.416C1009.94 473.716 1017.14 479.416 1028.54 479.416C1050.14 479.416 1071.74 452.416 1081.04 440.416C1083.74 436.816 1084.04 433.816 1081.94 429.916C1081.34 428.716 1080.44 428.116 1079.24 429.616C1069.94 441.316 1054.34 460.816 1040.24 460.816C1036.64 460.816 1034.84 458.716 1034.84 455.116C1034.84 446.416 1047.14 432.616 1052.54 423.316C1054.94 418.816 1055.84 415.516 1054.34 411.316C1053.44 408.916 1051.34 405.916 1049.24 404.116C1047.74 402.916 1046.54 403.216 1045.04 404.716C1029.74 420.016 1009.94 445.516 1009.94 461.416Z" stroke="#F9E9C2" stroke-width="15.2007" stroke-linecap="round" stroke-linejoin="round"/>
<path d="M1162.26 440.416C1164.66 437.416 1164.66 433.516 1163.46 429.916C1162.86 428.116 1161.66 428.116 1160.46 429.616C1152.96 439.516 1131.06 464.716 1107.06 464.716C1098.66 464.716 1093.56 459.916 1093.56 452.116C1093.56 429.916 1122.36 406.516 1130.16 406.516C1131.66 406.516 1132.26 407.416 1131.96 408.316C1131.36 412.216 1127.76 415.216 1127.76 419.116C1127.76 421.816 1129.86 424.216 1134.06 424.216C1143.06 424.216 1151.46 414.616 1151.46 405.316C1151.46 399.016 1146.06 395.116 1136.76 395.116C1106.46 395.116 1066.86 427.816 1066.86 458.416C1066.86 472.816 1077.66 483.316 1096.86 483.316C1128.36 483.316 1152.36 453.316 1162.26 440.416Z" stroke="#F9E9C2" stroke-width="15.2007" stroke-linecap="round" stroke-linejoin="round"/>
<path d="M1280.6 305.416C1283.9 299.716 1285.1 296.416 1285.1 292.216C1285.1 286.816 1281.5 279.616 1275.8 275.716C1274.3 274.816 1273.1 274.516 1271.6 276.316C1243.1 309.616 1168.4 412.216 1140.5 458.416C1138.4 462.016 1137.2 465.016 1137.2 467.716C1137.2 471.316 1140.8 474.916 1143.8 477.316C1145.6 478.816 1147.1 478.816 1148.6 476.716C1157.6 464.116 1174.1 444.616 1187.9 433.816C1198.7 425.116 1211.6 417.916 1217.6 417.916C1218.8 417.916 1219.7 418.516 1220.3 419.116C1220.6 419.716 1220.9 420.316 1220.9 420.916C1220.9 426.916 1207.4 438.616 1187.9 441.916C1184.9 442.516 1184.6 444.016 1184.6 447.316C1184.6 463.516 1193.9 480.016 1211 480.016C1231.7 480.016 1253.9 452.716 1263.2 440.416C1265 438.016 1265.3 436.516 1265.3 434.416C1265.3 433.216 1265 431.116 1264.4 429.916C1263.5 428.416 1262.9 427.816 1261.4 429.616C1252.7 440.716 1233.5 462.316 1218.5 462.316C1211 462.316 1205.6 455.716 1203.5 447.016C1227.5 444.916 1245.5 431.416 1245.5 414.316C1245.5 404.716 1239.2 398.716 1229.3 398.716C1214.6 398.716 1196.6 412.216 1182.5 427.216C1218.5 381.016 1265.6 331.216 1280.6 305.416Z" stroke="#F9E9C2" stroke-width="15.2007" stroke-linecap="round" stroke-linejoin="round"/>
<path d="M1315.39 361.816C1302.79 361.816 1290.79 377.716 1290.79 387.916C1290.79 394.216 1294.09 398.116 1300.09 398.116C1312.09 398.116 1324.39 384.316 1324.39 371.716C1324.39 365.716 1321.39 361.816 1315.39 361.816ZM1245.49 461.416C1245.49 473.716 1252.69 479.416 1264.09 479.416C1285.69 479.416 1307.29 452.416 1316.59 440.416C1319.29 436.816 1319.59 433.816 1317.49 429.916C1316.89 428.716 1315.99 428.116 1314.79 429.616C1305.49 441.316 1289.89 460.816 1275.79 460.816C1272.19 460.816 1270.39 458.716 1270.39 455.116C1270.39 446.416 1282.69 432.616 1288.09 423.316C1290.49 418.816 1291.39 415.516 1289.89 411.316C1288.99 408.916 1286.89 405.916 1284.79 404.116C1283.29 402.916 1282.09 403.216 1280.59 404.716C1265.29 420.016 1245.49 445.516 1245.49 461.416Z" stroke="#F9E9C2" stroke-width="15.2007" stroke-linecap="round" stroke-linejoin="round"/>
<path d="M1399.91 440.416C1402.31 437.416 1402.31 433.516 1401.11 429.916C1400.51 428.116 1399.31 428.116 1398.11 429.616C1389.71 440.416 1367.81 465.016 1342.31 465.016C1332.41 465.016 1327.61 458.716 1328.21 450.316C1328.21 448.516 1328.51 446.716 1329.11 444.916C1360.91 446.116 1386.11 427.516 1387.31 411.016C1387.91 402.316 1382.51 396.316 1370.81 396.316C1337.51 396.316 1302.41 430.516 1302.41 457.216C1302.41 472.216 1312.91 483.016 1332.11 483.016C1365.41 483.016 1390.01 453.316 1399.91 440.416ZM1331.81 438.016C1339.31 422.716 1356.11 407.716 1365.11 407.716C1367.81 407.716 1368.11 410.116 1367.21 412.516C1363.91 420.916 1350.41 433.516 1331.81 438.016Z" stroke="#F9E9C2" stroke-width="15.2007" stroke-linecap="round" stroke-linejoin="round"/>
</g>
<g style="mix-blend-mode:color-dodge" filter="url(#filter2_f_407_346)">
<path d="M683.2 538V563.62L665.2 538H658.9V580H667.18V554.32L685.18 580H691.48V538H683.2Z" stroke="#FFE711" stroke-width="10" stroke-linecap="round" stroke-linejoin="round"/>
<path d="M730.351 545.92V538H705.271V580H713.551V563.8H729.871V555.88H713.551V545.92H730.351Z" stroke="#FFE711" stroke-width="10" stroke-linecap="round" stroke-linejoin="round"/>
<path d="M770.164 538H739.264V545.92H750.544V580H758.824V545.92H770.164V538Z" stroke="#FFE711" stroke-width="10" stroke-linecap="round" stroke-linejoin="round"/>
</g>
<g style="mix-blend-mode:color-dodge" filter="url(#filter3_f_407_346)">
<path d="M370.84 467.416C368.74 463.816 366.94 456.916 366.94 450.016C366.94 405.616 452.44 342.016 452.44 302.116C452.44 286.516 439.84 275.716 414.94 275.716C390.64 275.716 358.54 283.816 334.54 296.116C332.44 297.316 332.74 298.816 333.94 300.016C337.24 303.316 341.74 306.016 345.94 307.816C352.54 310.516 361.54 310.216 368.14 307.816C381.64 303.016 403.24 295.516 414.64 295.516C423.04 295.516 427.84 299.716 427.84 306.616C427.84 337.216 348.34 386.416 348.34 441.616C348.34 463.816 356.44 480.316 367.84 489.616C372.64 494.116 376.24 494.416 384.04 491.116C429.94 472.216 512.74 378.916 522.94 322.216C525.04 309.316 526.84 295.516 516.64 287.116C515.14 285.916 514.24 286.516 513.94 288.316C504.94 352.216 414.34 456.316 380.14 469.816C375.34 471.916 373.24 471.316 370.84 467.416Z" fill="#C2832E"/>
<path d="M569.046 440.416C571.446 437.416 571.446 433.516 570.246 429.916C569.646 428.116 568.446 428.116 567.246 429.616C558.846 440.416 536.946 465.016 511.446 465.016C501.546 465.016 496.746 458.716 497.346 450.316C497.346 448.516 497.646 446.716 498.246 444.916C530.046 446.116 555.246 427.516 556.446 411.016C557.046 402.316 551.646 396.316 539.946 396.316C506.646 396.316 471.546 430.516 471.546 457.216C471.546 472.216 482.046 483.016 501.246 483.016C534.546 483.016 559.146 453.316 569.046 440.416ZM500.946 438.016C508.446 422.716 525.246 407.716 534.246 407.716C536.946 407.716 537.246 410.116 536.346 412.516C533.046 420.916 519.546 433.516 500.946 438.016Z" fill="#C2832E"/>
<path d="M661.242 440.416C663.642 437.416 663.642 433.516 662.442 429.916C661.842 428.116 660.642 427.816 659.442 429.616C646.242 446.416 631.842 460.216 616.542 472.516C621.042 466.216 624.942 460.516 627.942 455.116C630.642 450.316 632.142 447.016 630.342 443.416C629.142 441.016 627.342 438.916 625.242 437.416C622.842 435.616 621.342 435.316 619.242 437.116C611.142 444.016 597.342 456.916 587.142 456.916C582.942 456.916 581.142 454.816 581.142 450.916C581.142 434.116 611.742 406.816 622.542 406.816C624.042 406.816 624.942 407.416 624.942 408.916C624.642 412.216 621.042 415.516 621.042 420.016C621.042 423.616 624.342 425.416 629.142 425.416C637.542 425.416 647.442 416.716 647.442 407.416C647.442 400.516 642.642 394.516 631.542 394.516C597.942 394.516 550.542 433.216 550.542 462.616C550.542 474.616 559.242 479.116 568.242 479.116C582.042 479.116 599.142 467.116 612.342 452.716C591.942 483.016 550.542 524.716 535.842 552.316C529.242 564.616 528.942 571.816 532.842 576.616C534.942 579.616 537.342 581.416 539.742 582.916C542.442 584.416 543.942 583.816 545.442 581.116C562.842 546.316 588.642 513.316 614.142 489.016C628.842 475.216 647.442 457.816 661.242 440.416Z" fill="#C2832E"/>
<path d="M757.735 440.416C759.835 437.416 760.435 433.216 758.635 429.916C757.735 428.116 757.135 428.116 755.935 429.616C746.335 441.916 728.935 459.916 717.535 459.916C715.735 459.916 714.535 458.716 714.535 456.916C714.535 452.716 719.935 445.816 723.835 439.216C726.535 434.416 724.135 430.216 721.735 427.216C719.335 424.216 717.235 424.516 715.135 426.616C710.635 431.116 704.635 438.316 698.335 444.016C689.635 452.416 680.335 458.716 674.335 458.716C671.635 458.716 669.535 457.516 669.535 453.316C669.535 435.916 702.835 403.516 714.235 403.516C715.435 403.516 716.035 404.116 716.035 405.016C716.035 407.716 713.935 410.716 713.935 413.716C713.935 417.316 716.635 420.316 723.535 419.716C732.235 418.816 738.235 409.516 738.535 402.016C738.535 397.216 733.735 392.716 723.235 392.716C686.635 392.716 638.635 439.216 638.635 467.116C638.635 476.716 645.235 480.916 652.735 480.916C664.735 480.916 679.435 471.016 691.135 459.616C688.435 470.116 694.735 477.616 705.535 477.616C727.435 477.616 747.535 453.316 757.735 440.416Z" fill="#C2832E"/>
<path d="M829.814 440.416C832.214 437.416 832.214 433.816 830.714 429.916C830.114 428.416 829.214 428.116 828.014 429.616C818.714 441.016 812.414 447.916 800.114 454.216C808.214 438.916 801.314 415.816 806.714 402.316C814.514 399.316 818.414 395.416 817.514 392.116C816.314 388.816 807.314 387.616 796.214 391.816C781.814 397.216 771.014 410.416 756.014 429.616C753.614 432.616 753.614 436.516 754.814 440.116C755.714 441.916 756.614 441.916 757.814 440.416C771.614 422.716 779.114 414.616 786.314 409.816C780.314 423.916 783.614 448.816 775.514 459.316C758.714 459.916 745.814 466.816 745.814 474.016C745.814 478.816 751.214 481.816 759.914 481.816C771.614 481.816 783.314 477.316 790.814 468.916C807.914 462.916 819.614 453.616 829.814 440.416Z" fill="#C2832E"/>
<path d="M909.903 467.416C907.803 463.816 906.003 456.916 906.003 450.016C906.003 405.616 991.503 342.016 991.503 302.116C991.503 286.516 978.903 275.716 954.003 275.716C929.703 275.716 897.603 283.816 873.603 296.116C871.503 297.316 871.803 298.816 873.003 300.016C876.303 303.316 880.803 306.016 885.003 307.816C891.603 310.516 900.603 310.216 907.203 307.816C920.703 303.016 942.303 295.516 953.703 295.516C962.103 295.516 966.903 299.716 966.903 306.616C966.903 337.216 887.403 386.416 887.403 441.616C887.403 463.816 895.503 480.316 906.903 489.616C911.703 494.116 915.303 494.416 923.103 491.116C969.003 472.216 1051.8 378.916 1062 322.216C1064.1 309.316 1065.9 295.516 1055.7 287.116C1054.2 285.916 1053.3 286.516 1053 288.316C1044 352.216 953.403 456.316 919.203 469.816C914.403 471.916 912.303 471.316 909.903 467.416Z" fill="#C2832E"/>
<path d="M1079.84 361.816C1067.24 361.816 1055.24 377.716 1055.24 387.916C1055.24 394.216 1058.54 398.116 1064.54 398.116C1076.54 398.116 1088.84 384.316 1088.84 371.716C1088.84 365.716 1085.84 361.816 1079.84 361.816ZM1009.94 461.416C1009.94 473.716 1017.14 479.416 1028.54 479.416C1050.14 479.416 1071.74 452.416 1081.04 440.416C1083.74 436.816 1084.04 433.816 1081.94 429.916C1081.34 428.716 1080.44 428.116 1079.24 429.616C1069.94 441.316 1054.34 460.816 1040.24 460.816C1036.64 460.816 1034.84 458.716 1034.84 455.116C1034.84 446.416 1047.14 432.616 1052.54 423.316C1054.94 418.816 1055.84 415.516 1054.34 411.316C1053.44 408.916 1051.34 405.916 1049.24 404.116C1047.74 402.916 1046.54 403.216 1045.04 404.716C1029.74 420.016 1009.94 445.516 1009.94 461.416Z" fill="#C2832E"/>
<path d="M1162.26 440.416C1164.66 437.416 1164.66 433.516 1163.46 429.916C1162.86 428.116 1161.66 428.116 1160.46 429.616C1152.96 439.516 1131.06 464.716 1107.06 464.716C1098.66 464.716 1093.56 459.916 1093.56 452.116C1093.56 429.916 1122.36 406.516 1130.16 406.516C1131.66 406.516 1132.26 407.416 1131.96 408.316C1131.36 412.216 1127.76 415.216 1127.76 419.116C1127.76 421.816 1129.86 424.216 1134.06 424.216C1143.06 424.216 1151.46 414.616 1151.46 405.316C1151.46 399.016 1146.06 395.116 1136.76 395.116C1106.46 395.116 1066.86 427.816 1066.86 458.416C1066.86 472.816 1077.66 483.316 1096.86 483.316C1128.36 483.316 1152.36 453.316 1162.26 440.416Z" fill="#C2832E"/>
<path d="M1280.6 305.416C1283.9 299.716 1285.1 296.416 1285.1 292.216C1285.1 286.816 1281.5 279.616 1275.8 275.716C1274.3 274.816 1273.1 274.516 1271.6 276.316C1243.1 309.616 1168.4 412.216 1140.5 458.416C1138.4 462.016 1137.2 465.016 1137.2 467.716C1137.2 471.316 1140.8 474.916 1143.8 477.316C1145.6 478.816 1147.1 478.816 1148.6 476.716C1157.6 464.116 1174.1 444.616 1187.9 433.816C1198.7 425.116 1211.6 417.916 1217.6 417.916C1218.8 417.916 1219.7 418.516 1220.3 419.116C1220.6 419.716 1220.9 420.316 1220.9 420.916C1220.9 426.916 1207.4 438.616 1187.9 441.916C1184.9 442.516 1184.6 444.016 1184.6 447.316C1184.6 463.516 1193.9 480.016 1211 480.016C1231.7 480.016 1253.9 452.716 1263.2 440.416C1265 438.016 1265.3 436.516 1265.3 434.416C1265.3 433.216 1265 431.116 1264.4 429.916C1263.5 428.416 1262.9 427.816 1261.4 429.616C1252.7 440.716 1233.5 462.316 1218.5 462.316C1211 462.316 1205.6 455.716 1203.5 447.016C1227.5 444.916 1245.5 431.416 1245.5 414.316C1245.5 404.716 1239.2 398.716 1229.3 398.716C1214.6 398.716 1196.6 412.216 1182.5 427.216C1218.5 381.016 1265.6 331.216 1280.6 305.416Z" fill="#C2832E"/>
<path d="M1315.39 361.816C1302.79 361.816 1290.79 377.716 1290.79 387.916C1290.79 394.216 1294.09 398.116 1300.09 398.116C1312.09 398.116 1324.39 384.316 1324.39 371.716C1324.39 365.716 1321.39 361.816 1315.39 361.816ZM1245.49 461.416C1245.49 473.716 1252.69 479.416 1264.09 479.416C1285.69 479.416 1307.29 452.416 1316.59 440.416C1319.29 436.816 1319.59 433.816 1317.49 429.916C1316.89 428.716 1315.99 428.116 1314.79 429.616C1305.49 441.316 1289.89 460.816 1275.79 460.816C1272.19 460.816 1270.39 458.716 1270.39 455.116C1270.39 446.416 1282.69 432.616 1288.09 423.316C1290.49 418.816 1291.39 415.516 1289.89 411.316C1288.99 408.916 1286.89 405.916 1284.79 404.116C1283.29 402.916 1282.09 403.216 1280.59 404.716C1265.29 420.016 1245.49 445.516 1245.49 461.416Z" fill="#C2832E"/>
<path d="M1399.91 440.416C1402.31 437.416 1402.31 433.516 1401.11 429.916C1400.51 428.116 1399.31 428.116 1398.11 429.616C1389.71 440.416 1367.81 465.016 1342.31 465.016C1332.41 465.016 1327.61 458.716 1328.21 450.316C1328.21 448.516 1328.51 446.716 1329.11 444.916C1360.91 446.116 1386.11 427.516 1387.31 411.016C1387.91 402.316 1382.51 396.316 1370.81 396.316C1337.51 396.316 1302.41 430.516 1302.41 457.216C1302.41 472.216 1312.91 483.016 1332.11 483.016C1365.41 483.016 1390.01 453.316 1399.91 440.416ZM1331.81 438.016C1339.31 422.716 1356.11 407.716 1365.11 407.716C1367.81 407.716 1368.11 410.116 1367.21 412.516C1363.91 420.916 1350.41 433.516 1331.81 438.016Z" fill="#C2832E"/>
<path d="M370.84 467.416C368.74 463.816 366.94 456.916 366.94 450.016C366.94 405.616 452.44 342.016 452.44 302.116C452.44 286.516 439.84 275.716 414.94 275.716C390.64 275.716 358.54 283.816 334.54 296.116C332.44 297.316 332.74 298.816 333.94 300.016C337.24 303.316 341.74 306.016 345.94 307.816C352.54 310.516 361.54 310.216 368.14 307.816C381.64 303.016 403.24 295.516 414.64 295.516C423.04 295.516 427.84 299.716 427.84 306.616C427.84 337.216 348.34 386.416 348.34 441.616C348.34 463.816 356.44 480.316 367.84 489.616C372.64 494.116 376.24 494.416 384.04 491.116C429.94 472.216 512.74 378.916 522.94 322.216C525.04 309.316 526.84 295.516 516.64 287.116C515.14 285.916 514.24 286.516 513.94 288.316C504.94 352.216 414.34 456.316 380.14 469.816C375.34 471.916 373.24 471.316 370.84 467.416Z" stroke="#C2832E" stroke-width="20" stroke-linecap="round" stroke-linejoin="round"/>
<path d="M569.046 440.416C571.446 437.416 571.446 433.516 570.246 429.916C569.646 428.116 568.446 428.116 567.246 429.616C558.846 440.416 536.946 465.016 511.446 465.016C501.546 465.016 496.746 458.716 497.346 450.316C497.346 448.516 497.646 446.716 498.246 444.916C530.046 446.116 555.246 427.516 556.446 411.016C557.046 402.316 551.646 396.316 539.946 396.316C506.646 396.316 471.546 430.516 471.546 457.216C471.546 472.216 482.046 483.016 501.246 483.016C534.546 483.016 559.146 453.316 569.046 440.416ZM500.946 438.016C508.446 422.716 525.246 407.716 534.246 407.716C536.946 407.716 537.246 410.116 536.346 412.516C533.046 420.916 519.546 433.516 500.946 438.016Z" stroke="#C2832E" stroke-width="20" stroke-linecap="round" stroke-linejoin="round"/>
<path d="M661.242 440.416C663.642 437.416 663.642 433.516 662.442 429.916C661.842 428.116 660.642 427.816 659.442 429.616C646.242 446.416 631.842 460.216 616.542 472.516C621.042 466.216 624.942 460.516 627.942 455.116C630.642 450.316 632.142 447.016 630.342 443.416C629.142 441.016 627.342 438.916 625.242 437.416C622.842 435.616 621.342 435.316 619.242 437.116C611.142 444.016 597.342 456.916 587.142 456.916C582.942 456.916 581.142 454.816 581.142 450.916C581.142 434.116 611.742 406.816 622.542 406.816C624.042 406.816 624.942 407.416 624.942 408.916C624.642 412.216 621.042 415.516 621.042 420.016C621.042 423.616 624.342 425.416 629.142 425.416C637.542 425.416 647.442 416.716 647.442 407.416C647.442 400.516 642.642 394.516 631.542 394.516C597.942 394.516 550.542 433.216 550.542 462.616C550.542 474.616 559.242 479.116 568.242 479.116C582.042 479.116 599.142 467.116 612.342 452.716C591.942 483.016 550.542 524.716 535.842 552.316C529.242 564.616 528.942 571.816 532.842 576.616C534.942 579.616 537.342 581.416 539.742 582.916C542.442 584.416 543.942 583.816 545.442 581.116C562.842 546.316 588.642 513.316 614.142 489.016C628.842 475.216 647.442 457.816 661.242 440.416Z" stroke="#C2832E" stroke-width="20" stroke-linecap="round" stroke-linejoin="round"/>
<path d="M757.735 440.416C759.835 437.416 760.435 433.216 758.635 429.916C757.735 428.116 757.135 428.116 755.935 429.616C746.335 441.916 728.935 459.916 717.535 459.916C715.735 459.916 714.535 458.716 714.535 456.916C714.535 452.716 719.935 445.816 723.835 439.216C726.535 434.416 724.135 430.216 721.735 427.216C719.335 424.216 717.235 424.516 715.135 426.616C710.635 431.116 704.635 438.316 698.335 444.016C689.635 452.416 680.335 458.716 674.335 458.716C671.635 458.716 669.535 457.516 669.535 453.316C669.535 435.916 702.835 403.516 714.235 403.516C715.435 403.516 716.035 404.116 716.035 405.016C716.035 407.716 713.935 410.716 713.935 413.716C713.935 417.316 716.635 420.316 723.535 419.716C732.235 418.816 738.235 409.516 738.535 402.016C738.535 397.216 733.735 392.716 723.235 392.716C686.635 392.716 638.635 439.216 638.635 467.116C638.635 476.716 645.235 480.916 652.735 480.916C664.735 480.916 679.435 471.016 691.135 459.616C688.435 470.116 694.735 477.616 705.535 477.616C727.435 477.616 747.535 453.316 757.735 440.416Z" stroke="#C2832E" stroke-width="20" stroke-linecap="round" stroke-linejoin="round"/>
<path d="M829.814 440.416C832.214 437.416 832.214 433.816 830.714 429.916C830.114 428.416 829.214 428.116 828.014 429.616C818.714 441.016 812.414 447.916 800.114 454.216C808.214 438.916 801.314 415.816 806.714 402.316C814.514 399.316 818.414 395.416 817.514 392.116C816.314 388.816 807.314 387.616 796.214 391.816C781.814 397.216 771.014 410.416 756.014 429.616C753.614 432.616 753.614 436.516 754.814 440.116C755.714 441.916 756.614 441.916 757.814 440.416C771.614 422.716 779.114 414.616 786.314 409.816C780.314 423.916 783.614 448.816 775.514 459.316C758.714 459.916 745.814 466.816 745.814 474.016C745.814 478.816 751.214 481.816 759.914 481.816C771.614 481.816 783.314 477.316 790.814 468.916C807.914 462.916 819.614 453.616 829.814 440.416Z" stroke="#C2832E" stroke-width="20" stroke-linecap="round" stroke-linejoin="round"/>
<path d="M909.903 467.416C907.803 463.816 906.003 456.916 906.003 450.016C906.003 405.616 991.503 342.016 991.503 302.116C991.503 286.516 978.903 275.716 954.003 275.716C929.703 275.716 897.603 283.816 873.603 296.116C871.503 297.316 871.803 298.816 873.003 300.016C876.303 303.316 880.803 306.016 885.003 307.816C891.603 310.516 900.603 310.216 907.203 307.816C920.703 303.016 942.303 295.516 953.703 295.516C962.103 295.516 966.903 299.716 966.903 306.616C966.903 337.216 887.403 386.416 887.403 441.616C887.403 463.816 895.503 480.316 906.903 489.616C911.703 494.116 915.303 494.416 923.103 491.116C969.003 472.216 1051.8 378.916 1062 322.216C1064.1 309.316 1065.9 295.516 1055.7 287.116C1054.2 285.916 1053.3 286.516 1053 288.316C1044 352.216 953.403 456.316 919.203 469.816C914.403 471.916 912.303 471.316 909.903 467.416Z" stroke="#C2832E" stroke-width="20" stroke-linecap="round" stroke-linejoin="round"/>
<path d="M1079.84 361.816C1067.24 361.816 1055.24 377.716 1055.24 387.916C1055.24 394.216 1058.54 398.116 1064.54 398.116C1076.54 398.116 1088.84 384.316 1088.84 371.716C1088.84 365.716 1085.84 361.816 1079.84 361.816ZM1009.94 461.416C1009.94 473.716 1017.14 479.416 1028.54 479.416C1050.14 479.416 1071.74 452.416 1081.04 440.416C1083.74 436.816 1084.04 433.816 1081.94 429.916C1081.34 428.716 1080.44 428.116 1079.24 429.616C1069.94 441.316 1054.34 460.816 1040.24 460.816C1036.64 460.816 1034.84 458.716 1034.84 455.116C1034.84 446.416 1047.14 432.616 1052.54 423.316C1054.94 418.816 1055.84 415.516 1054.34 411.316C1053.44 408.916 1051.34 405.916 1049.24 404.116C1047.74 402.916 1046.54 403.216 1045.04 404.716C1029.74 420.016 1009.94 445.516 1009.94 461.416Z" stroke="#C2832E" stroke-width="20" stroke-linecap="round" stroke-linejoin="round"/>
<path d="M1162.26 440.416C1164.66 437.416 1164.66 433.516 1163.46 429.916C1162.86 428.116 1161.66 428.116 1160.46 429.616C1152.96 439.516 1131.06 464.716 1107.06 464.716C1098.66 464.716 1093.56 459.916 1093.56 452.116C1093.56 429.916 1122.36 406.516 1130.16 406.516C1131.66 406.516 1132.26 407.416 1131.96 408.316C1131.36 412.216 1127.76 415.216 1127.76 419.116C1127.76 421.816 1129.86 424.216 1134.06 424.216C1143.06 424.216 1151.46 414.616 1151.46 405.316C1151.46 399.016 1146.06 395.116 1136.76 395.116C1106.46 395.116 1066.86 427.816 1066.86 458.416C1066.86 472.816 1077.66 483.316 1096.86 483.316C1128.36 483.316 1152.36 453.316 1162.26 440.416Z" stroke="#C2832E" stroke-width="20" stroke-linecap="round" stroke-linejoin="round"/>
<path d="M1280.6 305.416C1283.9 299.716 1285.1 296.416 1285.1 292.216C1285.1 286.816 1281.5 279.616 1275.8 275.716C1274.3 274.816 1273.1 274.516 1271.6 276.316C1243.1 309.616 1168.4 412.216 1140.5 458.416C1138.4 462.016 1137.2 465.016 1137.2 467.716C1137.2 471.316 1140.8 474.916 1143.8 477.316C1145.6 478.816 1147.1 478.816 1148.6 476.716C1157.6 464.116 1174.1 444.616 1187.9 433.816C1198.7 425.116 1211.6 417.916 1217.6 417.916C1218.8 417.916 1219.7 418.516 1220.3 419.116C1220.6 419.716 1220.9 420.316 1220.9 420.916C1220.9 426.916 1207.4 438.616 1187.9 441.916C1184.9 442.516 1184.6 444.016 1184.6 447.316C1184.6 463.516 1193.9 480.016 1211 480.016C1231.7 480.016 1253.9 452.716 1263.2 440.416C1265 438.016 1265.3 436.516 1265.3 434.416C1265.3 433.216 1265 431.116 1264.4 429.916C1263.5 428.416 1262.9 427.816 1261.4 429.616C1252.7 440.716 1233.5 462.316 1218.5 462.316C1211 462.316 1205.6 455.716 1203.5 447.016C1227.5 444.916 1245.5 431.416 1245.5 414.316C1245.5 404.716 1239.2 398.716 1229.3 398.716C1214.6 398.716 1196.6 412.216 1182.5 427.216C1218.5 381.016 1265.6 331.216 1280.6 305.416Z" stroke="#C2832E" stroke-width="20" stroke-linecap="round" stroke-linejoin="round"/>
<path d="M1315.39 361.816C1302.79 361.816 1290.79 377.716 1290.79 387.916C1290.79 394.216 1294.09 398.116 1300.09 398.116C1312.09 398.116 1324.39 384.316 1324.39 371.716C1324.39 365.716 1321.39 361.816 1315.39 361.816ZM1245.49 461.416C1245.49 473.716 1252.69 479.416 1264.09 479.416C1285.69 479.416 1307.29 452.416 1316.59 440.416C1319.29 436.816 1319.59 433.816 1317.49 429.916C1316.89 428.716 1315.99 428.116 1314.79 429.616C1305.49 441.316 1289.89 460.816 1275.79 460.816C1272.19 460.816 1270.39 458.716 1270.39 455.116C1270.39 446.416 1282.69 432.616 1288.09 423.316C1290.49 418.816 1291.39 415.516 1289.89 411.316C1288.99 408.916 1286.89 405.916 1284.79 404.116C1283.29 402.916 1282.09 403.216 1280.59 404.716C1265.29 420.016 1245.49 445.516 1245.49 461.416Z" stroke="#C2832E" stroke-width="20" stroke-linecap="round" stroke-linejoin="round"/>
<path d="M1399.91 440.416C1402.31 437.416 1402.31 433.516 1401.11 429.916C1400.51 428.116 1399.31 428.116 1398.11 429.616C1389.71 440.416 1367.81 465.016 1342.31 465.016C1332.41 465.016 1327.61 458.716 1328.21 450.316C1328.21 448.516 1328.51 446.716 1329.11 444.916C1360.91 446.116 1386.11 427.516 1387.31 411.016C1387.91 402.316 1382.51 396.316 1370.81 396.316C1337.51 396.316 1302.41 430.516 1302.41 457.216C1302.41 472.216 1312.91 483.016 1332.11 483.016C1365.41 483.016 1390.01 453.316 1399.91 440.416ZM1331.81 438.016C1339.31 422.716 1356.11 407.716 1365.11 407.716C1367.81 407.716 1368.11 410.116 1367.21 412.516C1363.91 420.916 1350.41 433.516 1331.81 438.016Z" stroke="#C2832E" stroke-width="20" stroke-linecap="round" stroke-linejoin="round"/>
</g>
<g style="mix-blend-mode:color-dodge" filter="url(#filter4_f_407_346)">
<path d="M683.2 538V563.62L665.2 538H658.9V580H667.18V554.32L685.18 580H691.48V538H683.2Z" fill="#C2832E"/>
<path d="M730.351 545.92V538H705.271V580H713.551V563.8H729.871V555.88H713.551V545.92H730.351Z" fill="#C2832E"/>
<path d="M770.164 538H739.264V545.92H750.544V580H758.824V545.92H770.164V538Z" fill="#C2832E"/>
<path d="M683.2 538V563.62L665.2 538H658.9V580H667.18V554.32L685.18 580H691.48V538H683.2Z" stroke="#C2832E" stroke-width="10" stroke-linecap="round" stroke-linejoin="round"/>
<path d="M730.351 545.92V538H705.271V580H713.551V563.8H729.871V555.88H713.551V545.92H730.351Z" stroke="#C2832E" stroke-width="10" stroke-linecap="round" stroke-linejoin="round"/>
<path d="M770.164 538H739.264V545.92H750.544V580H758.824V545.92H770.164V538Z" stroke="#C2832E" stroke-width="10" stroke-linecap="round" stroke-linejoin="round"/>
</g>
<g style="mix-blend-mode:multiply" opacity="0.2" filter="url(#filter5_f_407_346)">
<path d="M371.84 491.416C369.74 487.816 367.94 480.916 367.94 474.016C367.94 429.616 453.44 366.016 453.44 326.116C453.44 310.516 440.84 299.716 415.94 299.716C391.64 299.716 359.54 307.816 335.54 320.116C333.44 321.316 333.74 322.816 334.94 324.016C338.24 327.316 342.74 330.016 346.94 331.816C353.54 334.516 362.54 334.216 369.14 331.816C382.64 327.016 404.24 319.516 415.64 319.516C424.04 319.516 428.84 323.716 428.84 330.616C428.84 361.216 349.34 410.416 349.34 465.616C349.34 487.816 357.44 504.316 368.84 513.616C373.64 518.116 377.24 518.416 385.04 515.116C430.94 496.216 513.74 402.916 523.94 346.216C526.04 333.316 527.84 319.516 517.64 311.116C516.14 309.916 515.24 310.516 514.94 312.316C505.94 376.216 415.34 480.316 381.14 493.816C376.34 495.916 374.24 495.316 371.84 491.416Z" stroke="#FFDD83" stroke-width="4.5602" stroke-linecap="round" stroke-linejoin="round"/>
<path d="M570.046 464.416C572.446 461.416 572.446 457.516 571.246 453.916C570.646 452.116 569.446 452.116 568.246 453.616C559.846 464.416 537.946 489.016 512.446 489.016C502.546 489.016 497.746 482.716 498.346 474.316C498.346 472.516 498.646 470.716 499.246 468.916C531.046 470.116 556.246 451.516 557.446 435.016C558.046 426.316 552.646 420.316 540.946 420.316C507.646 420.316 472.546 454.516 472.546 481.216C472.546 496.216 483.046 507.016 502.246 507.016C535.546 507.016 560.146 477.316 570.046 464.416ZM501.946 462.016C509.446 446.716 526.246 431.716 535.246 431.716C537.946 431.716 538.246 434.116 537.346 436.516C534.046 444.916 520.546 457.516 501.946 462.016Z" stroke="#FFDD83" stroke-width="4.5602" stroke-linecap="round" stroke-linejoin="round"/>
<path d="M662.242 464.416C664.642 461.416 664.642 457.516 663.442 453.916C662.842 452.116 661.642 451.816 660.442 453.616C647.242 470.416 632.842 484.216 617.542 496.516C622.042 490.216 625.942 484.516 628.942 479.116C631.642 474.316 633.142 471.016 631.342 467.416C630.142 465.016 628.342 462.916 626.242 461.416C623.842 459.616 622.342 459.316 620.242 461.116C612.142 468.016 598.342 480.916 588.142 480.916C583.942 480.916 582.142 478.816 582.142 474.916C582.142 458.116 612.742 430.816 623.542 430.816C625.042 430.816 625.942 431.416 625.942 432.916C625.642 436.216 622.042 439.516 622.042 444.016C622.042 447.616 625.342 449.416 630.142 449.416C638.542 449.416 648.442 440.716 648.442 431.416C648.442 424.516 643.642 418.516 632.542 418.516C598.942 418.516 551.542 457.216 551.542 486.616C551.542 498.616 560.242 503.116 569.242 503.116C583.042 503.116 600.142 491.116 613.342 476.716C592.942 507.016 551.542 548.716 536.842 576.316C530.242 588.616 529.942 595.816 533.842 600.616C535.942 603.616 538.342 605.416 540.742 606.916C543.442 608.416 544.942 607.816 546.442 605.116C563.842 570.316 589.642 537.316 615.142 513.016C629.842 499.216 648.442 481.816 662.242 464.416Z" stroke="#FFDD83" stroke-width="4.5602" stroke-linecap="round" stroke-linejoin="round"/>
<path d="M758.735 464.416C760.835 461.416 761.435 457.216 759.635 453.916C758.735 452.116 758.135 452.116 756.935 453.616C747.335 465.916 729.935 483.916 718.535 483.916C716.735 483.916 715.535 482.716 715.535 480.916C715.535 476.716 720.935 469.816 724.835 463.216C727.535 458.416 725.135 454.216 722.735 451.216C720.335 448.216 718.235 448.516 716.135 450.616C711.635 455.116 705.635 462.316 699.335 468.016C690.635 476.416 681.335 482.716 675.335 482.716C672.635 482.716 670.535 481.516 670.535 477.316C670.535 459.916 703.835 427.516 715.235 427.516C716.435 427.516 717.035 428.116 717.035 429.016C717.035 431.716 714.935 434.716 714.935 437.716C714.935 441.316 717.635 444.316 724.535 443.716C733.235 442.816 739.235 433.516 739.535 426.016C739.535 421.216 734.735 416.716 724.235 416.716C687.635 416.716 639.635 463.216 639.635 491.116C639.635 500.716 646.235 504.916 653.735 504.916C665.735 504.916 680.435 495.016 692.135 483.616C689.435 494.116 695.735 501.616 706.535 501.616C728.435 501.616 748.535 477.316 758.735 464.416Z" stroke="#FFDD83" stroke-width="4.5602" stroke-linecap="round" stroke-linejoin="round"/>
<path d="M830.814 464.416C833.214 461.416 833.214 457.816 831.714 453.916C831.114 452.416 830.214 452.116 829.014 453.616C819.714 465.016 813.414 471.916 801.114 478.216C809.214 462.916 802.314 439.816 807.714 426.316C815.514 423.316 819.414 419.416 818.514 416.116C817.314 412.816 808.314 411.616 797.214 415.816C782.814 421.216 772.014 434.416 757.014 453.616C754.614 456.616 754.614 460.516 755.814 464.116C756.714 465.916 757.614 465.916 758.814 464.416C772.614 446.716 780.114 438.616 787.314 433.816C781.314 447.916 784.614 472.816 776.514 483.316C759.714 483.916 746.814 490.816 746.814 498.016C746.814 502.816 752.214 505.816 760.914 505.816C772.614 505.816 784.314 501.316 791.814 492.916C808.914 486.916 820.614 477.616 830.814 464.416Z" stroke="#FFDD83" stroke-width="4.5602" stroke-linecap="round" stroke-linejoin="round"/>
<path d="M910.903 491.416C908.803 487.816 907.003 480.916 907.003 474.016C907.003 429.616 992.503 366.016 992.503 326.116C992.503 310.516 979.903 299.716 955.003 299.716C930.703 299.716 898.603 307.816 874.603 320.116C872.503 321.316 872.803 322.816 874.003 324.016C877.303 327.316 881.803 330.016 886.003 331.816C892.603 334.516 901.603 334.216 908.203 331.816C921.703 327.016 943.303 319.516 954.703 319.516C963.103 319.516 967.903 323.716 967.903 330.616C967.903 361.216 888.403 410.416 888.403 465.616C888.403 487.816 896.503 504.316 907.903 513.616C912.703 518.116 916.303 518.416 924.103 515.116C970.003 496.216 1052.8 402.916 1063 346.216C1065.1 333.316 1066.9 319.516 1056.7 311.116C1055.2 309.916 1054.3 310.516 1054 312.316C1045 376.216 954.403 480.316 920.203 493.816C915.403 495.916 913.303 495.316 910.903 491.416Z" stroke="#FFDD83" stroke-width="4.5602" stroke-linecap="round" stroke-linejoin="round"/>
<path d="M1080.84 385.816C1068.24 385.816 1056.24 401.716 1056.24 411.916C1056.24 418.216 1059.54 422.116 1065.54 422.116C1077.54 422.116 1089.84 408.316 1089.84 395.716C1089.84 389.716 1086.84 385.816 1080.84 385.816ZM1010.94 485.416C1010.94 497.716 1018.14 503.416 1029.54 503.416C1051.14 503.416 1072.74 476.416 1082.04 464.416C1084.74 460.816 1085.04 457.816 1082.94 453.916C1082.34 452.716 1081.44 452.116 1080.24 453.616C1070.94 465.316 1055.34 484.816 1041.24 484.816C1037.64 484.816 1035.84 482.716 1035.84 479.116C1035.84 470.416 1048.14 456.616 1053.54 447.316C1055.94 442.816 1056.84 439.516 1055.34 435.316C1054.44 432.916 1052.34 429.916 1050.24 428.116C1048.74 426.916 1047.54 427.216 1046.04 428.716C1030.74 444.016 1010.94 469.516 1010.94 485.416Z" stroke="#FFDD83" stroke-width="4.5602" stroke-linecap="round" stroke-linejoin="round"/>
<path d="M1163.26 464.416C1165.66 461.416 1165.66 457.516 1164.46 453.916C1163.86 452.116 1162.66 452.116 1161.46 453.616C1153.96 463.516 1132.06 488.716 1108.06 488.716C1099.66 488.716 1094.56 483.916 1094.56 476.116C1094.56 453.916 1123.36 430.516 1131.16 430.516C1132.66 430.516 1133.26 431.416 1132.96 432.316C1132.36 436.216 1128.76 439.216 1128.76 443.116C1128.76 445.816 1130.86 448.216 1135.06 448.216C1144.06 448.216 1152.46 438.616 1152.46 429.316C1152.46 423.016 1147.06 419.116 1137.76 419.116C1107.46 419.116 1067.86 451.816 1067.86 482.416C1067.86 496.816 1078.66 507.316 1097.86 507.316C1129.36 507.316 1153.36 477.316 1163.26 464.416Z" stroke="#FFDD83" stroke-width="4.5602" stroke-linecap="round" stroke-linejoin="round"/>
<path d="M1281.6 329.416C1284.9 323.716 1286.1 320.416 1286.1 316.216C1286.1 310.816 1282.5 303.616 1276.8 299.716C1275.3 298.816 1274.1 298.516 1272.6 300.316C1244.1 333.616 1169.4 436.216 1141.5 482.416C1139.4 486.016 1138.2 489.016 1138.2 491.716C1138.2 495.316 1141.8 498.916 1144.8 501.316C1146.6 502.816 1148.1 502.816 1149.6 500.716C1158.6 488.116 1175.1 468.616 1188.9 457.816C1199.7 449.116 1212.6 441.916 1218.6 441.916C1219.8 441.916 1220.7 442.516 1221.3 443.116C1221.6 443.716 1221.9 444.316 1221.9 444.916C1221.9 450.916 1208.4 462.616 1188.9 465.916C1185.9 466.516 1185.6 468.016 1185.6 471.316C1185.6 487.516 1194.9 504.016 1212 504.016C1232.7 504.016 1254.9 476.716 1264.2 464.416C1266 462.016 1266.3 460.516 1266.3 458.416C1266.3 457.216 1266 455.116 1265.4 453.916C1264.5 452.416 1263.9 451.816 1262.4 453.616C1253.7 464.716 1234.5 486.316 1219.5 486.316C1212 486.316 1206.6 479.716 1204.5 471.016C1228.5 468.916 1246.5 455.416 1246.5 438.316C1246.5 428.716 1240.2 422.716 1230.3 422.716C1215.6 422.716 1197.6 436.216 1183.5 451.216C1219.5 405.016 1266.6 355.216 1281.6 329.416Z" stroke="#FFDD83" stroke-width="4.5602" stroke-linecap="round" stroke-linejoin="round"/>
<path d="M1316.39 385.816C1303.79 385.816 1291.79 401.716 1291.79 411.916C1291.79 418.216 1295.09 422.116 1301.09 422.116C1313.09 422.116 1325.39 408.316 1325.39 395.716C1325.39 389.716 1322.39 385.816 1316.39 385.816ZM1246.49 485.416C1246.49 497.716 1253.69 503.416 1265.09 503.416C1286.69 503.416 1308.29 476.416 1317.59 464.416C1320.29 460.816 1320.59 457.816 1318.49 453.916C1317.89 452.716 1316.99 452.116 1315.79 453.616C1306.49 465.316 1290.89 484.816 1276.79 484.816C1273.19 484.816 1271.39 482.716 1271.39 479.116C1271.39 470.416 1283.69 456.616 1289.09 447.316C1291.49 442.816 1292.39 439.516 1290.89 435.316C1289.99 432.916 1287.89 429.916 1285.79 428.116C1284.29 426.916 1283.09 427.216 1281.59 428.716C1266.29 444.016 1246.49 469.516 1246.49 485.416Z" stroke="#FFDD83" stroke-width="4.5602" stroke-linecap="round" stroke-linejoin="round"/>
<path d="M1400.91 464.416C1403.31 461.416 1403.31 457.516 1402.11 453.916C1401.51 452.116 1400.31 452.116 1399.11 453.616C1390.71 464.416 1368.81 489.016 1343.31 489.016C1333.41 489.016 1328.61 482.716 1329.21 474.316C1329.21 472.516 1329.51 470.716 1330.11 468.916C1361.91 470.116 1387.11 451.516 1388.31 435.016C1388.91 426.316 1383.51 420.316 1371.81 420.316C1338.51 420.316 1303.41 454.516 1303.41 481.216C1303.41 496.216 1313.91 507.016 1333.11 507.016C1366.41 507.016 1391.01 477.316 1400.91 464.416ZM1332.81 462.016C1340.31 446.716 1357.11 431.716 1366.11 431.716C1368.81 431.716 1369.11 434.116 1368.21 436.516C1364.91 444.916 1351.41 457.516 1332.81 462.016Z" stroke="#FFDD83" stroke-width="4.5602" stroke-linecap="round" stroke-linejoin="round"/>
</g>
<g style="mix-blend-mode:multiply" opacity="0.2" filter="url(#filter6_f_407_346)">
<path d="M684.2 562V587.62L666.2 562H659.9V604H668.18V578.32L686.18 604H692.48V562H684.2Z" stroke="#FFDD83" stroke-width="4.5602" stroke-linecap="round" stroke-linejoin="round"/>
<path d="M731.351 569.92V562H706.271V604H714.551V587.8H730.871V579.88H714.551V569.92H731.351Z" stroke="#FFDD83" stroke-width="4.5602" stroke-linecap="round" stroke-linejoin="round"/>
<path d="M771.164 562H740.264V569.92H751.544V604H759.824V569.92H771.164V562Z" stroke="#FFDD83" stroke-width="4.5602" stroke-linecap="round" stroke-linejoin="round"/>
</g>
<g style="mix-blend-mode:hard-light" filter="url(#filter7_dddii_407_346)">
<path d="M370.84 467.416C368.74 463.816 366.94 456.916 366.94 450.016C366.94 405.616 452.44 342.016 452.44 302.116C452.44 286.516 439.84 275.716 414.94 275.716C390.64 275.716 358.54 283.816 334.54 296.116C332.44 297.316 332.74 298.816 333.94 300.016C337.24 303.316 341.74 306.016 345.94 307.816C352.54 310.516 361.54 310.216 368.14 307.816C381.64 303.016 403.24 295.516 414.64 295.516C423.04 295.516 427.84 299.716 427.84 306.616C427.84 337.216 348.34 386.416 348.34 441.616C348.34 463.816 356.44 480.316 367.84 489.616C372.64 494.116 376.24 494.416 384.04 491.116C429.94 472.216 512.74 378.916 522.94 322.216C525.04 309.316 526.84 295.516 516.64 287.116C515.14 285.916 514.24 286.516 513.94 288.316C504.94 352.216 414.34 456.316 380.14 469.816C375.34 471.916 373.24 471.316 370.84 467.416Z" stroke="#FFF4D8" stroke-width="15.2007" stroke-linecap="round" stroke-linejoin="round"/>
<path d="M569.046 440.416C571.446 437.416 571.446 433.516 570.246 429.916C569.646 428.116 568.446 428.116 567.246 429.616C558.846 440.416 536.946 465.016 511.446 465.016C501.546 465.016 496.746 458.716 497.346 450.316C497.346 448.516 497.646 446.716 498.246 444.916C530.046 446.116 555.246 427.516 556.446 411.016C557.046 402.316 551.646 396.316 539.946 396.316C506.646 396.316 471.546 430.516 471.546 457.216C471.546 472.216 482.046 483.016 501.246 483.016C534.546 483.016 559.146 453.316 569.046 440.416ZM500.946 438.016C508.446 422.716 525.246 407.716 534.246 407.716C536.946 407.716 537.246 410.116 536.346 412.516C533.046 420.916 519.546 433.516 500.946 438.016Z" stroke="#FFF4D8" stroke-width="15.2007" stroke-linecap="round" stroke-linejoin="round"/>
<path d="M661.242 440.416C663.642 437.416 663.642 433.516 662.442 429.916C661.842 428.116 660.642 427.816 659.442 429.616C646.242 446.416 631.842 460.216 616.542 472.516C621.042 466.216 624.942 460.516 627.942 455.116C630.642 450.316 632.142 447.016 630.342 443.416C629.142 441.016 627.342 438.916 625.242 437.416C622.842 435.616 621.342 435.316 619.242 437.116C611.142 444.016 597.342 456.916 587.142 456.916C582.942 456.916 581.142 454.816 581.142 450.916C581.142 434.116 611.742 406.816 622.542 406.816C624.042 406.816 624.942 407.416 624.942 408.916C624.642 412.216 621.042 415.516 621.042 420.016C621.042 423.616 624.342 425.416 629.142 425.416C637.542 425.416 647.442 416.716 647.442 407.416C647.442 400.516 642.642 394.516 631.542 394.516C597.942 394.516 550.542 433.216 550.542 462.616C550.542 474.616 559.242 479.116 568.242 479.116C582.042 479.116 599.142 467.116 612.342 452.716C591.942 483.016 550.542 524.716 535.842 552.316C529.242 564.616 528.942 571.816 532.842 576.616C534.942 579.616 537.342 581.416 539.742 582.916C542.442 584.416 543.942 583.816 545.442 581.116C562.842 546.316 588.642 513.316 614.142 489.016C628.842 475.216 647.442 457.816 661.242 440.416Z" stroke="#FFF4D8" stroke-width="15.2007" stroke-linecap="round" stroke-linejoin="round"/>
<path d="M757.735 440.416C759.835 437.416 760.435 433.216 758.635 429.916C757.735 428.116 757.135 428.116 755.935 429.616C746.335 441.916 728.935 459.916 717.535 459.916C715.735 459.916 714.535 458.716 714.535 456.916C714.535 452.716 719.935 445.816 723.835 439.216C726.535 434.416 724.135 430.216 721.735 427.216C719.335 424.216 717.235 424.516 715.135 426.616C710.635 431.116 704.635 438.316 698.335 444.016C689.635 452.416 680.335 458.716 674.335 458.716C671.635 458.716 669.535 457.516 669.535 453.316C669.535 435.916 702.835 403.516 714.235 403.516C715.435 403.516 716.035 404.116 716.035 405.016C716.035 407.716 713.935 410.716 713.935 413.716C713.935 417.316 716.635 420.316 723.535 419.716C732.235 418.816 738.235 409.516 738.535 402.016C738.535 397.216 733.735 392.716 723.235 392.716C686.635 392.716 638.635 439.216 638.635 467.116C638.635 476.716 645.235 480.916 652.735 480.916C664.735 480.916 679.435 471.016 691.135 459.616C688.435 470.116 694.735 477.616 705.535 477.616C727.435 477.616 747.535 453.316 757.735 440.416Z" stroke="#FFF4D8" stroke-width="15.2007" stroke-linecap="round" stroke-linejoin="round"/>
<path d="M829.814 440.416C832.214 437.416 832.214 433.816 830.714 429.916C830.114 428.416 829.214 428.116 828.014 429.616C818.714 441.016 812.414 447.916 800.114 454.216C808.214 438.916 801.314 415.816 806.714 402.316C814.514 399.316 818.414 395.416 817.514 392.116C816.314 388.816 807.314 387.616 796.214 391.816C781.814 397.216 771.014 410.416 756.014 429.616C753.614 432.616 753.614 436.516 754.814 440.116C755.714 441.916 756.614 441.916 757.814 440.416C771.614 422.716 779.114 414.616 786.314 409.816C780.314 423.916 783.614 448.816 775.514 459.316C758.714 459.916 745.814 466.816 745.814 474.016C745.814 478.816 751.214 481.816 759.914 481.816C771.614 481.816 783.314 477.316 790.814 468.916C807.914 462.916 819.614 453.616 829.814 440.416Z" stroke="#FFF4D8" stroke-width="15.2007" stroke-linecap="round" stroke-linejoin="round"/>
<path d="M909.903 467.416C907.803 463.816 906.003 456.916 906.003 450.016C906.003 405.616 991.503 342.016 991.503 302.116C991.503 286.516 978.903 275.716 954.003 275.716C929.703 275.716 897.603 283.816 873.603 296.116C871.503 297.316 871.803 298.816 873.003 300.016C876.303 303.316 880.803 306.016 885.003 307.816C891.603 310.516 900.603 310.216 907.203 307.816C920.703 303.016 942.303 295.516 953.703 295.516C962.103 295.516 966.903 299.716 966.903 306.616C966.903 337.216 887.403 386.416 887.403 441.616C887.403 463.816 895.503 480.316 906.903 489.616C911.703 494.116 915.303 494.416 923.103 491.116C969.003 472.216 1051.8 378.916 1062 322.216C1064.1 309.316 1065.9 295.516 1055.7 287.116C1054.2 285.916 1053.3 286.516 1053 288.316C1044 352.216 953.403 456.316 919.203 469.816C914.403 471.916 912.303 471.316 909.903 467.416Z" stroke="#FFF4D8" stroke-width="15.2007" stroke-linecap="round" stroke-linejoin="round"/>
<path d="M1079.84 361.816C1067.24 361.816 1055.24 377.716 1055.24 387.916C1055.24 394.216 1058.54 398.116 1064.54 398.116C1076.54 398.116 1088.84 384.316 1088.84 371.716C1088.84 365.716 1085.84 361.816 1079.84 361.816ZM1009.94 461.416C1009.94 473.716 1017.14 479.416 1028.54 479.416C1050.14 479.416 1071.74 452.416 1081.04 440.416C1083.74 436.816 1084.04 433.816 1081.94 429.916C1081.34 428.716 1080.44 428.116 1079.24 429.616C1069.94 441.316 1054.34 460.816 1040.24 460.816C1036.64 460.816 1034.84 458.716 1034.84 455.116C1034.84 446.416 1047.14 432.616 1052.54 423.316C1054.94 418.816 1055.84 415.516 1054.34 411.316C1053.44 408.916 1051.34 405.916 1049.24 404.116C1047.74 402.916 1046.54 403.216 1045.04 404.716C1029.74 420.016 1009.94 445.516 1009.94 461.416Z" stroke="#FFF4D8" stroke-width="15.2007" stroke-linecap="round" stroke-linejoin="round"/>
<path d="M1162.26 440.416C1164.66 437.416 1164.66 433.516 1163.46 429.916C1162.86 428.116 1161.66 428.116 1160.46 429.616C1152.96 439.516 1131.06 464.716 1107.06 464.716C1098.66 464.716 1093.56 459.916 1093.56 452.116C1093.56 429.916 1122.36 406.516 1130.16 406.516C1131.66 406.516 1132.26 407.416 1131.96 408.316C1131.36 412.216 1127.76 415.216 1127.76 419.116C1127.76 421.816 1129.86 424.216 1134.06 424.216C1143.06 424.216 1151.46 414.616 1151.46 405.316C1151.46 399.016 1146.06 395.116 1136.76 395.116C1106.46 395.116 1066.86 427.816 1066.86 458.416C1066.86 472.816 1077.66 483.316 1096.86 483.316C1128.36 483.316 1152.36 453.316 1162.26 440.416Z" stroke="#FFF4D8" stroke-width="15.2007" stroke-linecap="round" stroke-linejoin="round"/>
<path d="M1280.6 305.416C1283.9 299.716 1285.1 296.416 1285.1 292.216C1285.1 286.816 1281.5 279.616 1275.8 275.716C1274.3 274.816 1273.1 274.516 1271.6 276.316C1243.1 309.616 1168.4 412.216 1140.5 458.416C1138.4 462.016 1137.2 465.016 1137.2 467.716C1137.2 471.316 1140.8 474.916 1143.8 477.316C1145.6 478.816 1147.1 478.816 1148.6 476.716C1157.6 464.116 1174.1 444.616 1187.9 433.816C1198.7 425.116 1211.6 417.916 1217.6 417.916C1218.8 417.916 1219.7 418.516 1220.3 419.116C1220.6 419.716 1220.9 420.316 1220.9 420.916C1220.9 426.916 1207.4 438.616 1187.9 441.916C1184.9 442.516 1184.6 444.016 1184.6 447.316C1184.6 463.516 1193.9 480.016 1211 480.016C1231.7 480.016 1253.9 452.716 1263.2 440.416C1265 438.016 1265.3 436.516 1265.3 434.416C1265.3 433.216 1265 431.116 1264.4 429.916C1263.5 428.416 1262.9 427.816 1261.4 429.616C1252.7 440.716 1233.5 462.316 1218.5 462.316C1211 462.316 1205.6 455.716 1203.5 447.016C1227.5 444.916 1245.5 431.416 1245.5 414.316C1245.5 404.716 1239.2 398.716 1229.3 398.716C1214.6 398.716 1196.6 412.216 1182.5 427.216C1218.5 381.016 1265.6 331.216 1280.6 305.416Z" stroke="#FFF4D8" stroke-width="15.2007" stroke-linecap="round" stroke-linejoin="round"/>
<path d="M1315.39 361.816C1302.79 361.816 1290.79 377.716 1290.79 387.916C1290.79 394.216 1294.09 398.116 1300.09 398.116C1312.09 398.116 1324.39 384.316 1324.39 371.716C1324.39 365.716 1321.39 361.816 1315.39 361.816ZM1245.49 461.416C1245.49 473.716 1252.69 479.416 1264.09 479.416C1285.69 479.416 1307.29 452.416 1316.59 440.416C1319.29 436.816 1319.59 433.816 1317.49 429.916C1316.89 428.716 1315.99 428.116 1314.79 429.616C1305.49 441.316 1289.89 460.816 1275.79 460.816C1272.19 460.816 1270.39 458.716 1270.39 455.116C1270.39 446.416 1282.69 432.616 1288.09 423.316C1290.49 418.816 1291.39 415.516 1289.89 411.316C1288.99 408.916 1286.89 405.916 1284.79 404.116C1283.29 402.916 1282.09 403.216 1280.59 404.716C1265.29 420.016 1245.49 445.516 1245.49 461.416Z" stroke="#FFF4D8" stroke-width="15.2007" stroke-linecap="round" stroke-linejoin="round"/>
<path d="M1399.91 440.416C1402.31 437.416 1402.31 433.516 1401.11 429.916C1400.51 428.116 1399.31 428.116 1398.11 429.616C1389.71 440.416 1367.81 465.016 1342.31 465.016C1332.41 465.016 1327.61 458.716 1328.21 450.316C1328.21 448.516 1328.51 446.716 1329.11 444.916C1360.91 446.116 1386.11 427.516 1387.31 411.016C1387.91 402.316 1382.51 396.316 1370.81 396.316C1337.51 396.316 1302.41 430.516 1302.41 457.216C1302.41 472.216 1312.91 483.016 1332.11 483.016C1365.41 483.016 1390.01 453.316 1399.91 440.416ZM1331.81 438.016C1339.31 422.716 1356.11 407.716 1365.11 407.716C1367.81 407.716 1368.11 410.116 1367.21 412.516C1363.91 420.916 1350.41 433.516 1331.81 438.016Z" stroke="#FFF4D8" stroke-width="15.2007" stroke-linecap="round" stroke-linejoin="round"/>
</g>
<g style="mix-blend-mode:hard-light" filter="url(#filter8_dddii_407_346)">
<path d="M683.2 538V563.62L665.2 538H658.9V580H667.18V554.32L685.18 580H691.48V538H683.2Z" stroke="#FFF4D8" stroke-width="3" stroke-linecap="round" stroke-linejoin="round"/>
<path d="M730.351 545.92V538H705.271V580H713.551V563.8H729.871V555.88H713.551V545.92H730.351Z" stroke="#FFF4D8" stroke-width="3" stroke-linecap="round" stroke-linejoin="round"/>
<path d="M770.164 538H739.264V545.92H750.544V580H758.824V545.92H770.164V538Z" stroke="#FFF4D8" stroke-width="3" stroke-linecap="round" stroke-linejoin="round"/>
</g>
<g filter="url(#filter9_f_407_346)">
<path d="M370.84 467.416C368.74 463.816 366.94 456.916 366.94 450.016C366.94 405.616 452.44 342.016 452.44 302.116C452.44 286.516 439.84 275.716 414.94 275.716C390.64 275.716 358.54 283.816 334.54 296.116C332.44 297.316 332.74 298.816 333.94 300.016C337.24 303.316 341.74 306.016 345.94 307.816C352.54 310.516 361.54 310.216 368.14 307.816C381.64 303.016 403.24 295.516 414.64 295.516C423.04 295.516 427.84 299.716 427.84 306.616C427.84 337.216 348.34 386.416 348.34 441.616C348.34 463.816 356.44 480.316 367.84 489.616C372.64 494.116 376.24 494.416 384.04 491.116C429.94 472.216 512.74 378.916 522.94 322.216C525.04 309.316 526.84 295.516 516.64 287.116C515.14 285.916 514.24 286.516 513.94 288.316C504.94 352.216 414.34 456.316 380.14 469.816C375.34 471.916 373.24 471.316 370.84 467.416Z" stroke="#FFD25C" stroke-width="10"/>
<path d="M569.046 440.416C571.446 437.416 571.446 433.516 570.246 429.916C569.646 428.116 568.446 428.116 567.246 429.616C558.846 440.416 536.946 465.016 511.446 465.016C501.546 465.016 496.746 458.716 497.346 450.316C497.346 448.516 497.646 446.716 498.246 444.916C530.046 446.116 555.246 427.516 556.446 411.016C557.046 402.316 551.646 396.316 539.946 396.316C506.646 396.316 471.546 430.516 471.546 457.216C471.546 472.216 482.046 483.016 501.246 483.016C534.546 483.016 559.146 453.316 569.046 440.416ZM500.946 438.016C508.446 422.716 525.246 407.716 534.246 407.716C536.946 407.716 537.246 410.116 536.346 412.516C533.046 420.916 519.546 433.516 500.946 438.016Z" stroke="#FFD25C" stroke-width="10"/>
<path d="M661.242 440.416C663.642 437.416 663.642 433.516 662.442 429.916C661.842 428.116 660.642 427.816 659.442 429.616C646.242 446.416 631.842 460.216 616.542 472.516C621.042 466.216 624.942 460.516 627.942 455.116C630.642 450.316 632.142 447.016 630.342 443.416C629.142 441.016 627.342 438.916 625.242 437.416C622.842 435.616 621.342 435.316 619.242 437.116C611.142 444.016 597.342 456.916 587.142 456.916C582.942 456.916 581.142 454.816 581.142 450.916C581.142 434.116 611.742 406.816 622.542 406.816C624.042 406.816 624.942 407.416 624.942 408.916C624.642 412.216 621.042 415.516 621.042 420.016C621.042 423.616 624.342 425.416 629.142 425.416C637.542 425.416 647.442 416.716 647.442 407.416C647.442 400.516 642.642 394.516 631.542 394.516C597.942 394.516 550.542 433.216 550.542 462.616C550.542 474.616 559.242 479.116 568.242 479.116C582.042 479.116 599.142 467.116 612.342 452.716C591.942 483.016 550.542 524.716 535.842 552.316C529.242 564.616 528.942 571.816 532.842 576.616C534.942 579.616 537.342 581.416 539.742 582.916C542.442 584.416 543.942 583.816 545.442 581.116C562.842 546.316 588.642 513.316 614.142 489.016C628.842 475.216 647.442 457.816 661.242 440.416Z" stroke="#FFD25C" stroke-width="10"/>
<path d="M757.735 440.416C759.835 437.416 760.435 433.216 758.635 429.916C757.735 428.116 757.135 428.116 755.935 429.616C746.335 441.916 728.935 459.916 717.535 459.916C715.735 459.916 714.535 458.716 714.535 456.916C714.535 452.716 719.935 445.816 723.835 439.216C726.535 434.416 724.135 430.216 721.735 427.216C719.335 424.216 717.235 424.516 715.135 426.616C710.635 431.116 704.635 438.316 698.335 444.016C689.635 452.416 680.335 458.716 674.335 458.716C671.635 458.716 669.535 457.516 669.535 453.316C669.535 435.916 702.835 403.516 714.235 403.516C715.435 403.516 716.035 404.116 716.035 405.016C716.035 407.716 713.935 410.716 713.935 413.716C713.935 417.316 716.635 420.316 723.535 419.716C732.235 418.816 738.235 409.516 738.535 402.016C738.535 397.216 733.735 392.716 723.235 392.716C686.635 392.716 638.635 439.216 638.635 467.116C638.635 476.716 645.235 480.916 652.735 480.916C664.735 480.916 679.435 471.016 691.135 459.616C688.435 470.116 694.735 477.616 705.535 477.616C727.435 477.616 747.535 453.316 757.735 440.416Z" stroke="#FFD25C" stroke-width="10"/>
<path d="M829.814 440.416C832.214 437.416 832.214 433.816 830.714 429.916C830.114 428.416 829.214 428.116 828.014 429.616C818.714 441.016 812.414 447.916 800.114 454.216C808.214 438.916 801.314 415.816 806.714 402.316C814.514 399.316 818.414 395.416 817.514 392.116C816.314 388.816 807.314 387.616 796.214 391.816C781.814 397.216 771.014 410.416 756.014 429.616C753.614 432.616 753.614 436.516 754.814 440.116C755.714 441.916 756.614 441.916 757.814 440.416C771.614 422.716 779.114 414.616 786.314 409.816C780.314 423.916 783.614 448.816 775.514 459.316C758.714 459.916 745.814 466.816 745.814 474.016C745.814 478.816 751.214 481.816 759.914 481.816C771.614 481.816 783.314 477.316 790.814 468.916C807.914 462.916 819.614 453.616 829.814 440.416Z" stroke="#FFD25C" stroke-width="10"/>
<path d="M909.903 467.416C907.803 463.816 906.003 456.916 906.003 450.016C906.003 405.616 991.503 342.016 991.503 302.116C991.503 286.516 978.903 275.716 954.003 275.716C929.703 275.716 897.603 283.816 873.603 296.116C871.503 297.316 871.803 298.816 873.003 300.016C876.303 303.316 880.803 306.016 885.003 307.816C891.603 310.516 900.603 310.216 907.203 307.816C920.703 303.016 942.303 295.516 953.703 295.516C962.103 295.516 966.903 299.716 966.903 306.616C966.903 337.216 887.403 386.416 887.403 441.616C887.403 463.816 895.503 480.316 906.903 489.616C911.703 494.116 915.303 494.416 923.103 491.116C969.003 472.216 1051.8 378.916 1062 322.216C1064.1 309.316 1065.9 295.516 1055.7 287.116C1054.2 285.916 1053.3 286.516 1053 288.316C1044 352.216 953.403 456.316 919.203 469.816C914.403 471.916 912.303 471.316 909.903 467.416Z" stroke="#FFD25C" stroke-width="10"/>
<path d="M1079.84 361.816C1067.24 361.816 1055.24 377.716 1055.24 387.916C1055.24 394.216 1058.54 398.116 1064.54 398.116C1076.54 398.116 1088.84 384.316 1088.84 371.716C1088.84 365.716 1085.84 361.816 1079.84 361.816ZM1009.94 461.416C1009.94 473.716 1017.14 479.416 1028.54 479.416C1050.14 479.416 1071.74 452.416 1081.04 440.416C1083.74 436.816 1084.04 433.816 1081.94 429.916C1081.34 428.716 1080.44 428.116 1079.24 429.616C1069.94 441.316 1054.34 460.816 1040.24 460.816C1036.64 460.816 1034.84 458.716 1034.84 455.116C1034.84 446.416 1047.14 432.616 1052.54 423.316C1054.94 418.816 1055.84 415.516 1054.34 411.316C1053.44 408.916 1051.34 405.916 1049.24 404.116C1047.74 402.916 1046.54 403.216 1045.04 404.716C1029.74 420.016 1009.94 445.516 1009.94 461.416Z" stroke="#FFD25C" stroke-width="10"/>
<path d="M1162.26 440.416C1164.66 437.416 1164.66 433.516 1163.46 429.916C1162.86 428.116 1161.66 428.116 1160.46 429.616C1152.96 439.516 1131.06 464.716 1107.06 464.716C1098.66 464.716 1093.56 459.916 1093.56 452.116C1093.56 429.916 1122.36 406.516 1130.16 406.516C1131.66 406.516 1132.26 407.416 1131.96 408.316C1131.36 412.216 1127.76 415.216 1127.76 419.116C1127.76 421.816 1129.86 424.216 1134.06 424.216C1143.06 424.216 1151.46 414.616 1151.46 405.316C1151.46 399.016 1146.06 395.116 1136.76 395.116C1106.46 395.116 1066.86 427.816 1066.86 458.416C1066.86 472.816 1077.66 483.316 1096.86 483.316C1128.36 483.316 1152.36 453.316 1162.26 440.416Z" stroke="#FFD25C" stroke-width="10"/>
<path d="M1280.6 305.416C1283.9 299.716 1285.1 296.416 1285.1 292.216C1285.1 286.816 1281.5 279.616 1275.8 275.716C1274.3 274.816 1273.1 274.516 1271.6 276.316C1243.1 309.616 1168.4 412.216 1140.5 458.416C1138.4 462.016 1137.2 465.016 1137.2 467.716C1137.2 471.316 1140.8 474.916 1143.8 477.316C1145.6 478.816 1147.1 478.816 1148.6 476.716C1157.6 464.116 1174.1 444.616 1187.9 433.816C1198.7 425.116 1211.6 417.916 1217.6 417.916C1218.8 417.916 1219.7 418.516 1220.3 419.116C1220.6 419.716 1220.9 420.316 1220.9 420.916C1220.9 426.916 1207.4 438.616 1187.9 441.916C1184.9 442.516 1184.6 444.016 1184.6 447.316C1184.6 463.516 1193.9 480.016 1211 480.016C1231.7 480.016 1253.9 452.716 1263.2 440.416C1265 438.016 1265.3 436.516 1265.3 434.416C1265.3 433.216 1265 431.116 1264.4 429.916C1263.5 428.416 1262.9 427.816 1261.4 429.616C1252.7 440.716 1233.5 462.316 1218.5 462.316C1211 462.316 1205.6 455.716 1203.5 447.016C1227.5 444.916 1245.5 431.416 1245.5 414.316C1245.5 404.716 1239.2 398.716 1229.3 398.716C1214.6 398.716 1196.6 412.216 1182.5 427.216C1218.5 381.016 1265.6 331.216 1280.6 305.416Z" stroke="#FFD25C" stroke-width="10"/>
<path d="M1315.39 361.816C1302.79 361.816 1290.79 377.716 1290.79 387.916C1290.79 394.216 1294.09 398.116 1300.09 398.116C1312.09 398.116 1324.39 384.316 1324.39 371.716C1324.39 365.716 1321.39 361.816 1315.39 361.816ZM1245.49 461.416C1245.49 473.716 1252.69 479.416 1264.09 479.416C1285.69 479.416 1307.29 452.416 1316.59 440.416C1319.29 436.816 1319.59 433.816 1317.49 429.916C1316.89 428.716 1315.99 428.116 1314.79 429.616C1305.49 441.316 1289.89 460.816 1275.79 460.816C1272.19 460.816 1270.39 458.716 1270.39 455.116C1270.39 446.416 1282.69 432.616 1288.09 423.316C1290.49 418.816 1291.39 415.516 1289.89 411.316C1288.99 408.916 1286.89 405.916 1284.79 404.116C1283.29 402.916 1282.09 403.216 1280.59 404.716C1265.29 420.016 1245.49 445.516 1245.49 461.416Z" stroke="#FFD25C" stroke-width="10"/>
<path d="M1399.91 440.416C1402.31 437.416 1402.31 433.516 1401.11 429.916C1400.51 428.116 1399.31 428.116 1398.11 429.616C1389.71 440.416 1367.81 465.016 1342.31 465.016C1332.41 465.016 1327.61 458.716 1328.21 450.316C1328.21 448.516 1328.51 446.716 1329.11 444.916C1360.91 446.116 1386.11 427.516 1387.31 411.016C1387.91 402.316 1382.51 396.316 1370.81 396.316C1337.51 396.316 1302.41 430.516 1302.41 457.216C1302.41 472.216 1312.91 483.016 1332.11 483.016C1365.41 483.016 1390.01 453.316 1399.91 440.416ZM1331.81 438.016C1339.31 422.716 1356.11 407.716 1365.11 407.716C1367.81 407.716 1368.11 410.116 1367.21 412.516C1363.91 420.916 1350.41 433.516 1331.81 438.016Z" stroke="#FFD25C" stroke-width="10"/>
</g>
<g filter="url(#filter10_f_407_346)">
<path d="M683.2 538V563.62L665.2 538H658.9V580H667.18V554.32L685.18 580H691.48V538H683.2Z" stroke="#FFD25C" stroke-width="4"/>
<path d="M730.351 545.92V538H705.271V580H713.551V563.8H729.871V555.88H713.551V545.92H730.351Z" stroke="#FFD25C" stroke-width="4"/>
<path d="M770.164 538H739.264V545.92H750.544V580H758.824V545.92H770.164V538Z" stroke="#FFD25C" stroke-width="4"/>
</g>
<g filter="url(#filter11_f_407_346)">
<path d="M370.84 467.416C368.74 463.816 366.94 456.916 366.94 450.016C366.94 405.616 452.44 342.016 452.44 302.116C452.44 286.516 439.84 275.716 414.94 275.716C390.64 275.716 358.54 283.816 334.54 296.116C332.44 297.316 332.74 298.816 333.94 300.016C337.24 303.316 341.74 306.016 345.94 307.816C352.54 310.516 361.54 310.216 368.14 307.816C381.64 303.016 403.24 295.516 414.64 295.516C423.04 295.516 427.84 299.716 427.84 306.616C427.84 337.216 348.34 386.416 348.34 441.616C348.34 463.816 356.44 480.316 367.84 489.616C372.64 494.116 376.24 494.416 384.04 491.116C429.94 472.216 512.74 378.916 522.94 322.216C525.04 309.316 526.84 295.516 516.64 287.116C515.14 285.916 514.24 286.516 513.94 288.316C504.94 352.216 414.34 456.316 380.14 469.816C375.34 471.916 373.24 471.316 370.84 467.416Z" fill="white"/>
<path d="M569.046 440.416C571.446 437.416 571.446 433.516 570.246 429.916C569.646 428.116 568.446 428.116 567.246 429.616C558.846 440.416 536.946 465.016 511.446 465.016C501.546 465.016 496.746 458.716 497.346 450.316C497.346 448.516 497.646 446.716 498.246 444.916C530.046 446.116 555.246 427.516 556.446 411.016C557.046 402.316 551.646 396.316 539.946 396.316C506.646 396.316 471.546 430.516 471.546 457.216C471.546 472.216 482.046 483.016 501.246 483.016C534.546 483.016 559.146 453.316 569.046 440.416ZM500.946 438.016C508.446 422.716 525.246 407.716 534.246 407.716C536.946 407.716 537.246 410.116 536.346 412.516C533.046 420.916 519.546 433.516 500.946 438.016Z" fill="white"/>
<path d="M661.242 440.416C663.642 437.416 663.642 433.516 662.442 429.916C661.842 428.116 660.642 427.816 659.442 429.616C646.242 446.416 631.842 460.216 616.542 472.516C621.042 466.216 624.942 460.516 627.942 455.116C630.642 450.316 632.142 447.016 630.342 443.416C629.142 441.016 627.342 438.916 625.242 437.416C622.842 435.616 621.342 435.316 619.242 437.116C611.142 444.016 597.342 456.916 587.142 456.916C582.942 456.916 581.142 454.816 581.142 450.916C581.142 434.116 611.742 406.816 622.542 406.816C624.042 406.816 624.942 407.416 624.942 408.916C624.642 412.216 621.042 415.516 621.042 420.016C621.042 423.616 624.342 425.416 629.142 425.416C637.542 425.416 647.442 416.716 647.442 407.416C647.442 400.516 642.642 394.516 631.542 394.516C597.942 394.516 550.542 433.216 550.542 462.616C550.542 474.616 559.242 479.116 568.242 479.116C582.042 479.116 599.142 467.116 612.342 452.716C591.942 483.016 550.542 524.716 535.842 552.316C529.242 564.616 528.942 571.816 532.842 576.616C534.942 579.616 537.342 581.416 539.742 582.916C542.442 584.416 543.942 583.816 545.442 581.116C562.842 546.316 588.642 513.316 614.142 489.016C628.842 475.216 647.442 457.816 661.242 440.416Z" fill="white"/>
<path d="M757.735 440.416C759.835 437.416 760.435 433.216 758.635 429.916C757.735 428.116 757.135 428.116 755.935 429.616C746.335 441.916 728.935 459.916 717.535 459.916C715.735 459.916 714.535 458.716 714.535 456.916C714.535 452.716 719.935 445.816 723.835 439.216C726.535 434.416 724.135 430.216 721.735 427.216C719.335 424.216 717.235 424.516 715.135 426.616C710.635 431.116 704.635 438.316 698.335 444.016C689.635 452.416 680.335 458.716 674.335 458.716C671.635 458.716 669.535 457.516 669.535 453.316C669.535 435.916 702.835 403.516 714.235 403.516C715.435 403.516 716.035 404.116 716.035 405.016C716.035 407.716 713.935 410.716 713.935 413.716C713.935 417.316 716.635 420.316 723.535 419.716C732.235 418.816 738.235 409.516 738.535 402.016C738.535 397.216 733.735 392.716 723.235 392.716C686.635 392.716 638.635 439.216 638.635 467.116C638.635 476.716 645.235 480.916 652.735 480.916C664.735 480.916 679.435 471.016 691.135 459.616C688.435 470.116 694.735 477.616 705.535 477.616C727.435 477.616 747.535 453.316 757.735 440.416Z" fill="white"/>
<path d="M829.814 440.416C832.214 437.416 832.214 433.816 830.714 429.916C830.114 428.416 829.214 428.116 828.014 429.616C818.714 441.016 812.414 447.916 800.114 454.216C808.214 438.916 801.314 415.816 806.714 402.316C814.514 399.316 818.414 395.416 817.514 392.116C816.314 388.816 807.314 387.616 796.214 391.816C781.814 397.216 771.014 410.416 756.014 429.616C753.614 432.616 753.614 436.516 754.814 440.116C755.714 441.916 756.614 441.916 757.814 440.416C771.614 422.716 779.114 414.616 786.314 409.816C780.314 423.916 783.614 448.816 775.514 459.316C758.714 459.916 745.814 466.816 745.814 474.016C745.814 478.816 751.214 481.816 759.914 481.816C771.614 481.816 783.314 477.316 790.814 468.916C807.914 462.916 819.614 453.616 829.814 440.416Z" fill="white"/>
<path d="M909.903 467.416C907.803 463.816 906.003 456.916 906.003 450.016C906.003 405.616 991.503 342.016 991.503 302.116C991.503 286.516 978.903 275.716 954.003 275.716C929.703 275.716 897.603 283.816 873.603 296.116C871.503 297.316 871.803 298.816 873.003 300.016C876.303 303.316 880.803 306.016 885.003 307.816C891.603 310.516 900.603 310.216 907.203 307.816C920.703 303.016 942.303 295.516 953.703 295.516C962.103 295.516 966.903 299.716 966.903 306.616C966.903 337.216 887.403 386.416 887.403 441.616C887.403 463.816 895.503 480.316 906.903 489.616C911.703 494.116 915.303 494.416 923.103 491.116C969.003 472.216 1051.8 378.916 1062 322.216C1064.1 309.316 1065.9 295.516 1055.7 287.116C1054.2 285.916 1053.3 286.516 1053 288.316C1044 352.216 953.403 456.316 919.203 469.816C914.403 471.916 912.303 471.316 909.903 467.416Z" fill="white"/>
<path d="M1079.84 361.816C1067.24 361.816 1055.24 377.716 1055.24 387.916C1055.24 394.216 1058.54 398.116 1064.54 398.116C1076.54 398.116 1088.84 384.316 1088.84 371.716C1088.84 365.716 1085.84 361.816 1079.84 361.816ZM1009.94 461.416C1009.94 473.716 1017.14 479.416 1028.54 479.416C1050.14 479.416 1071.74 452.416 1081.04 440.416C1083.74 436.816 1084.04 433.816 1081.94 429.916C1081.34 428.716 1080.44 428.116 1079.24 429.616C1069.94 441.316 1054.34 460.816 1040.24 460.816C1036.64 460.816 1034.84 458.716 1034.84 455.116C1034.84 446.416 1047.14 432.616 1052.54 423.316C1054.94 418.816 1055.84 415.516 1054.34 411.316C1053.44 408.916 1051.34 405.916 1049.24 404.116C1047.74 402.916 1046.54 403.216 1045.04 404.716C1029.74 420.016 1009.94 445.516 1009.94 461.416Z" fill="white"/>
<path d="M1162.26 440.416C1164.66 437.416 1164.66 433.516 1163.46 429.916C1162.86 428.116 1161.66 428.116 1160.46 429.616C1152.96 439.516 1131.06 464.716 1107.06 464.716C1098.66 464.716 1093.56 459.916 1093.56 452.116C1093.56 429.916 1122.36 406.516 1130.16 406.516C1131.66 406.516 1132.26 407.416 1131.96 408.316C1131.36 412.216 1127.76 415.216 1127.76 419.116C1127.76 421.816 1129.86 424.216 1134.06 424.216C1143.06 424.216 1151.46 414.616 1151.46 405.316C1151.46 399.016 1146.06 395.116 1136.76 395.116C1106.46 395.116 1066.86 427.816 1066.86 458.416C1066.86 472.816 1077.66 483.316 1096.86 483.316C1128.36 483.316 1152.36 453.316 1162.26 440.416Z" fill="white"/>
<path d="M1280.6 305.416C1283.9 299.716 1285.1 296.416 1285.1 292.216C1285.1 286.816 1281.5 279.616 1275.8 275.716C1274.3 274.816 1273.1 274.516 1271.6 276.316C1243.1 309.616 1168.4 412.216 1140.5 458.416C1138.4 462.016 1137.2 465.016 1137.2 467.716C1137.2 471.316 1140.8 474.916 1143.8 477.316C1145.6 478.816 1147.1 478.816 1148.6 476.716C1157.6 464.116 1174.1 444.616 1187.9 433.816C1198.7 425.116 1211.6 417.916 1217.6 417.916C1218.8 417.916 1219.7 418.516 1220.3 419.116C1220.6 419.716 1220.9 420.316 1220.9 420.916C1220.9 426.916 1207.4 438.616 1187.9 441.916C1184.9 442.516 1184.6 444.016 1184.6 447.316C1184.6 463.516 1193.9 480.016 1211 480.016C1231.7 480.016 1253.9 452.716 1263.2 440.416C1265 438.016 1265.3 436.516 1265.3 434.416C1265.3 433.216 1265 431.116 1264.4 429.916C1263.5 428.416 1262.9 427.816 1261.4 429.616C1252.7 440.716 1233.5 462.316 1218.5 462.316C1211 462.316 1205.6 455.716 1203.5 447.016C1227.5 444.916 1245.5 431.416 1245.5 414.316C1245.5 404.716 1239.2 398.716 1229.3 398.716C1214.6 398.716 1196.6 412.216 1182.5 427.216C1218.5 381.016 1265.6 331.216 1280.6 305.416Z" fill="white"/>
<path d="M1315.39 361.816C1302.79 361.816 1290.79 377.716 1290.79 387.916C1290.79 394.216 1294.09 398.116 1300.09 398.116C1312.09 398.116 1324.39 384.316 1324.39 371.716C1324.39 365.716 1321.39 361.816 1315.39 361.816ZM1245.49 461.416C1245.49 473.716 1252.69 479.416 1264.09 479.416C1285.69 479.416 1307.29 452.416 1316.59 440.416C1319.29 436.816 1319.59 433.816 1317.49 429.916C1316.89 428.716 1315.99 428.116 1314.79 429.616C1305.49 441.316 1289.89 460.816 1275.79 460.816C1272.19 460.816 1270.39 458.716 1270.39 455.116C1270.39 446.416 1282.69 432.616 1288.09 423.316C1290.49 418.816 1291.39 415.516 1289.89 411.316C1288.99 408.916 1286.89 405.916 1284.79 404.116C1283.29 402.916 1282.09 403.216 1280.59 404.716C1265.29 420.016 1245.49 445.516 1245.49 461.416Z" fill="white"/>
<path d="M1399.91 440.416C1402.31 437.416 1402.31 433.516 1401.11 429.916C1400.51 428.116 1399.31 428.116 1398.11 429.616C1389.71 440.416 1367.81 465.016 1342.31 465.016C1332.41 465.016 1327.61 458.716 1328.21 450.316C1328.21 448.516 1328.51 446.716 1329.11 444.916C1360.91 446.116 1386.11 427.516 1387.31 411.016C1387.91 402.316 1382.51 396.316 1370.81 396.316C1337.51 396.316 1302.41 430.516 1302.41 457.216C1302.41 472.216 1312.91 483.016 1332.11 483.016C1365.41 483.016 1390.01 453.316 1399.91 440.416ZM1331.81 438.016C1339.31 422.716 1356.11 407.716 1365.11 407.716C1367.81 407.716 1368.11 410.116 1367.21 412.516C1363.91 420.916 1350.41 433.516 1331.81 438.016Z" fill="white"/>
<path d="M370.84 467.416C368.74 463.816 366.94 456.916 366.94 450.016C366.94 405.616 452.44 342.016 452.44 302.116C452.44 286.516 439.84 275.716 414.94 275.716C390.64 275.716 358.54 283.816 334.54 296.116C332.44 297.316 332.74 298.816 333.94 300.016C337.24 303.316 341.74 306.016 345.94 307.816C352.54 310.516 361.54 310.216 368.14 307.816C381.64 303.016 403.24 295.516 414.64 295.516C423.04 295.516 427.84 299.716 427.84 306.616C427.84 337.216 348.34 386.416 348.34 441.616C348.34 463.816 356.44 480.316 367.84 489.616C372.64 494.116 376.24 494.416 384.04 491.116C429.94 472.216 512.74 378.916 522.94 322.216C525.04 309.316 526.84 295.516 516.64 287.116C515.14 285.916 514.24 286.516 513.94 288.316C504.94 352.216 414.34 456.316 380.14 469.816C375.34 471.916 373.24 471.316 370.84 467.416Z" stroke="white" stroke-width="4"/>
<path d="M569.046 440.416C571.446 437.416 571.446 433.516 570.246 429.916C569.646 428.116 568.446 428.116 567.246 429.616C558.846 440.416 536.946 465.016 511.446 465.016C501.546 465.016 496.746 458.716 497.346 450.316C497.346 448.516 497.646 446.716 498.246 444.916C530.046 446.116 555.246 427.516 556.446 411.016C557.046 402.316 551.646 396.316 539.946 396.316C506.646 396.316 471.546 430.516 471.546 457.216C471.546 472.216 482.046 483.016 501.246 483.016C534.546 483.016 559.146 453.316 569.046 440.416ZM500.946 438.016C508.446 422.716 525.246 407.716 534.246 407.716C536.946 407.716 537.246 410.116 536.346 412.516C533.046 420.916 519.546 433.516 500.946 438.016Z" stroke="white" stroke-width="4"/>
<path d="M661.242 440.416C663.642 437.416 663.642 433.516 662.442 429.916C661.842 428.116 660.642 427.816 659.442 429.616C646.242 446.416 631.842 460.216 616.542 472.516C621.042 466.216 624.942 460.516 627.942 455.116C630.642 450.316 632.142 447.016 630.342 443.416C629.142 441.016 627.342 438.916 625.242 437.416C622.842 435.616 621.342 435.316 619.242 437.116C611.142 444.016 597.342 456.916 587.142 456.916C582.942 456.916 581.142 454.816 581.142 450.916C581.142 434.116 611.742 406.816 622.542 406.816C624.042 406.816 624.942 407.416 624.942 408.916C624.642 412.216 621.042 415.516 621.042 420.016C621.042 423.616 624.342 425.416 629.142 425.416C637.542 425.416 647.442 416.716 647.442 407.416C647.442 400.516 642.642 394.516 631.542 394.516C597.942 394.516 550.542 433.216 550.542 462.616C550.542 474.616 559.242 479.116 568.242 479.116C582.042 479.116 599.142 467.116 612.342 452.716C591.942 483.016 550.542 524.716 535.842 552.316C529.242 564.616 528.942 571.816 532.842 576.616C534.942 579.616 537.342 581.416 539.742 582.916C542.442 584.416 543.942 583.816 545.442 581.116C562.842 546.316 588.642 513.316 614.142 489.016C628.842 475.216 647.442 457.816 661.242 440.416Z" stroke="white" stroke-width="4"/>
<path d="M757.735 440.416C759.835 437.416 760.435 433.216 758.635 429.916C757.735 428.116 757.135 428.116 755.935 429.616C746.335 441.916 728.935 459.916 717.535 459.916C715.735 459.916 714.535 458.716 714.535 456.916C714.535 452.716 719.935 445.816 723.835 439.216C726.535 434.416 724.135 430.216 721.735 427.216C719.335 424.216 717.235 424.516 715.135 426.616C710.635 431.116 704.635 438.316 698.335 444.016C689.635 452.416 680.335 458.716 674.335 458.716C671.635 458.716 669.535 457.516 669.535 453.316C669.535 435.916 702.835 403.516 714.235 403.516C715.435 403.516 716.035 404.116 716.035 405.016C716.035 407.716 713.935 410.716 713.935 413.716C713.935 417.316 716.635 420.316 723.535 419.716C732.235 418.816 738.235 409.516 738.535 402.016C738.535 397.216 733.735 392.716 723.235 392.716C686.635 392.716 638.635 439.216 638.635 467.116C638.635 476.716 645.235 480.916 652.735 480.916C664.735 480.916 679.435 471.016 691.135 459.616C688.435 470.116 694.735 477.616 705.535 477.616C727.435 477.616 747.535 453.316 757.735 440.416Z" stroke="white" stroke-width="4"/>
<path d="M829.814 440.416C832.214 437.416 832.214 433.816 830.714 429.916C830.114 428.416 829.214 428.116 828.014 429.616C818.714 441.016 812.414 447.916 800.114 454.216C808.214 438.916 801.314 415.816 806.714 402.316C814.514 399.316 818.414 395.416 817.514 392.116C816.314 388.816 807.314 387.616 796.214 391.816C781.814 397.216 771.014 410.416 756.014 429.616C753.614 432.616 753.614 436.516 754.814 440.116C755.714 441.916 756.614 441.916 757.814 440.416C771.614 422.716 779.114 414.616 786.314 409.816C780.314 423.916 783.614 448.816 775.514 459.316C758.714 459.916 745.814 466.816 745.814 474.016C745.814 478.816 751.214 481.816 759.914 481.816C771.614 481.816 783.314 477.316 790.814 468.916C807.914 462.916 819.614 453.616 829.814 440.416Z" stroke="white" stroke-width="4"/>
<path d="M909.903 467.416C907.803 463.816 906.003 456.916 906.003 450.016C906.003 405.616 991.503 342.016 991.503 302.116C991.503 286.516 978.903 275.716 954.003 275.716C929.703 275.716 897.603 283.816 873.603 296.116C871.503 297.316 871.803 298.816 873.003 300.016C876.303 303.316 880.803 306.016 885.003 307.816C891.603 310.516 900.603 310.216 907.203 307.816C920.703 303.016 942.303 295.516 953.703 295.516C962.103 295.516 966.903 299.716 966.903 306.616C966.903 337.216 887.403 386.416 887.403 441.616C887.403 463.816 895.503 480.316 906.903 489.616C911.703 494.116 915.303 494.416 923.103 491.116C969.003 472.216 1051.8 378.916 1062 322.216C1064.1 309.316 1065.9 295.516 1055.7 287.116C1054.2 285.916 1053.3 286.516 1053 288.316C1044 352.216 953.403 456.316 919.203 469.816C914.403 471.916 912.303 471.316 909.903 467.416Z" stroke="white" stroke-width="4"/>
<path d="M1079.84 361.816C1067.24 361.816 1055.24 377.716 1055.24 387.916C1055.24 394.216 1058.54 398.116 1064.54 398.116C1076.54 398.116 1088.84 384.316 1088.84 371.716C1088.84 365.716 1085.84 361.816 1079.84 361.816ZM1009.94 461.416C1009.94 473.716 1017.14 479.416 1028.54 479.416C1050.14 479.416 1071.74 452.416 1081.04 440.416C1083.74 436.816 1084.04 433.816 1081.94 429.916C1081.34 428.716 1080.44 428.116 1079.24 429.616C1069.94 441.316 1054.34 460.816 1040.24 460.816C1036.64 460.816 1034.84 458.716 1034.84 455.116C1034.84 446.416 1047.14 432.616 1052.54 423.316C1054.94 418.816 1055.84 415.516 1054.34 411.316C1053.44 408.916 1051.34 405.916 1049.24 404.116C1047.74 402.916 1046.54 403.216 1045.04 404.716C1029.74 420.016 1009.94 445.516 1009.94 461.416Z" stroke="white" stroke-width="4"/>
<path d="M1162.26 440.416C1164.66 437.416 1164.66 433.516 1163.46 429.916C1162.86 428.116 1161.66 428.116 1160.46 429.616C1152.96 439.516 1131.06 464.716 1107.06 464.716C1098.66 464.716 1093.56 459.916 1093.56 452.116C1093.56 429.916 1122.36 406.516 1130.16 406.516C1131.66 406.516 1132.26 407.416 1131.96 408.316C1131.36 412.216 1127.76 415.216 1127.76 419.116C1127.76 421.816 1129.86 424.216 1134.06 424.216C1143.06 424.216 1151.46 414.616 1151.46 405.316C1151.46 399.016 1146.06 395.116 1136.76 395.116C1106.46 395.116 1066.86 427.816 1066.86 458.416C1066.86 472.816 1077.66 483.316 1096.86 483.316C1128.36 483.316 1152.36 453.316 1162.26 440.416Z" stroke="white" stroke-width="4"/>
<path d="M1280.6 305.416C1283.9 299.716 1285.1 296.416 1285.1 292.216C1285.1 286.816 1281.5 279.616 1275.8 275.716C1274.3 274.816 1273.1 274.516 1271.6 276.316C1243.1 309.616 1168.4 412.216 1140.5 458.416C1138.4 462.016 1137.2 465.016 1137.2 467.716C1137.2 471.316 1140.8 474.916 1143.8 477.316C1145.6 478.816 1147.1 478.816 1148.6 476.716C1157.6 464.116 1174.1 444.616 1187.9 433.816C1198.7 425.116 1211.6 417.916 1217.6 417.916C1218.8 417.916 1219.7 418.516 1220.3 419.116C1220.6 419.716 1220.9 420.316 1220.9 420.916C1220.9 426.916 1207.4 438.616 1187.9 441.916C1184.9 442.516 1184.6 444.016 1184.6 447.316C1184.6 463.516 1193.9 480.016 1211 480.016C1231.7 480.016 1253.9 452.716 1263.2 440.416C1265 438.016 1265.3 436.516 1265.3 434.416C1265.3 433.216 1265 431.116 1264.4 429.916C1263.5 428.416 1262.9 427.816 1261.4 429.616C1252.7 440.716 1233.5 462.316 1218.5 462.316C1211 462.316 1205.6 455.716 1203.5 447.016C1227.5 444.916 1245.5 431.416 1245.5 414.316C1245.5 404.716 1239.2 398.716 1229.3 398.716C1214.6 398.716 1196.6 412.216 1182.5 427.216C1218.5 381.016 1265.6 331.216 1280.6 305.416Z" stroke="white" stroke-width="4"/>
<path d="M1315.39 361.816C1302.79 361.816 1290.79 377.716 1290.79 387.916C1290.79 394.216 1294.09 398.116 1300.09 398.116C1312.09 398.116 1324.39 384.316 1324.39 371.716C1324.39 365.716 1321.39 361.816 1315.39 361.816ZM1245.49 461.416C1245.49 473.716 1252.69 479.416 1264.09 479.416C1285.69 479.416 1307.29 452.416 1316.59 440.416C1319.29 436.816 1319.59 433.816 1317.49 429.916C1316.89 428.716 1315.99 428.116 1314.79 429.616C1305.49 441.316 1289.89 460.816 1275.79 460.816C1272.19 460.816 1270.39 458.716 1270.39 455.116C1270.39 446.416 1282.69 432.616 1288.09 423.316C1290.49 418.816 1291.39 415.516 1289.89 411.316C1288.99 408.916 1286.89 405.916 1284.79 404.116C1283.29 402.916 1282.09 403.216 1280.59 404.716C1265.29 420.016 1245.49 445.516 1245.49 461.416Z" stroke="white" stroke-width="4"/>
<path d="M1399.91 440.416C1402.31 437.416 1402.31 433.516 1401.11 429.916C1400.51 428.116 1399.31 428.116 1398.11 429.616C1389.71 440.416 1367.81 465.016 1342.31 465.016C1332.41 465.016 1327.61 458.716 1328.21 450.316C1328.21 448.516 1328.51 446.716 1329.11 444.916C1360.91 446.116 1386.11 427.516 1387.31 411.016C1387.91 402.316 1382.51 396.316 1370.81 396.316C1337.51 396.316 1302.41 430.516 1302.41 457.216C1302.41 472.216 1312.91 483.016 1332.11 483.016C1365.41 483.016 1390.01 453.316 1399.91 440.416ZM1331.81 438.016C1339.31 422.716 1356.11 407.716 1365.11 407.716C1367.81 407.716 1368.11 410.116 1367.21 412.516C1363.91 420.916 1350.41 433.516 1331.81 438.016Z" stroke="white" stroke-width="4"/>
</g>
<g filter="url(#filter12_f_407_346)">
<path d="M683.2 538V563.62L665.2 538H658.9V580H667.18V554.32L685.18 580H691.48V538H683.2Z" stroke="white" stroke-width="2"/>
<path d="M730.351 545.92V538H705.271V580H713.551V563.8H729.871V555.88H713.551V545.92H730.351Z" stroke="white" stroke-width="2"/>
<path d="M770.164 538H739.264V545.92H750.544V580H758.824V545.92H770.164V538Z" stroke="white" stroke-width="2"/>
</g>
</g>
<defs>
<filter id="filter0_f_407_346" x="-22.0132" y="-101.013" width="1744.98" height="1108.84" filterUnits="userSpaceOnUse" color-interpolation-filters="sRGB">
<feFlood flood-opacity="0" result="BackgroundImageFix"/>
<feBlend mode="normal" in="SourceGraphic" in2="BackgroundImageFix" result="shape"/>
<feGaussianBlur stdDeviation="152.007" result="effect1_foregroundBlur_407_346"/>
</filter>
<filter id="filter1_f_407_346" x="249.396" y="191.397" width="1236.1" height="475.93" filterUnits="userSpaceOnUse" color-interpolation-filters="sRGB">
<feFlood flood-opacity="0" result="BackgroundImageFix"/>
<feBlend mode="normal" in="SourceGraphic" in2="BackgroundImageFix" result="shape"/>
<feGaussianBlur stdDeviation="38.0017" result="effect1_foregroundBlur_407_346"/>
</filter>
<filter id="filter2_f_407_346" x="583.9" y="463" width="261.264" height="192" filterUnits="userSpaceOnUse" color-interpolation-filters="sRGB">
<feFlood flood-opacity="0" result="BackgroundImageFix"/>
<feBlend mode="normal" in="SourceGraphic" in2="BackgroundImageFix" result="shape"/>
<feGaussianBlur stdDeviation="35" result="effect1_foregroundBlur_407_346"/>
</filter>
<filter id="filter3_f_407_346" x="300.198" y="242.199" width="1134.49" height="374.326" filterUnits="userSpaceOnUse" color-interpolation-filters="sRGB">
<feFlood flood-opacity="0" result="BackgroundImageFix"/>
<feBlend mode="normal" in="SourceGraphic" in2="BackgroundImageFix" result="shape"/>
<feGaussianBlur stdDeviation="11.4005" result="effect1_foregroundBlur_407_346"/>
</filter>
<filter id="filter4_f_407_346" x="643.9" y="523" width="141.264" height="72" filterUnits="userSpaceOnUse" color-interpolation-filters="sRGB">
<feFlood flood-opacity="0" result="BackgroundImageFix"/>
<feBlend mode="normal" in="SourceGraphic" in2="BackgroundImageFix" result="shape"/>
<feGaussianBlur stdDeviation="5" result="effect1_foregroundBlur_407_346"/>
</filter>
<filter id="filter5_f_407_346" x="328.68" y="293.68" width="1079.53" height="319.361" filterUnits="userSpaceOnUse" color-interpolation-filters="sRGB">
<feFlood flood-opacity="0" result="BackgroundImageFix"/>
<feBlend mode="normal" in="SourceGraphic" in2="BackgroundImageFix" result="shape"/>
<feGaussianBlur stdDeviation="1.52007" result="effect1_foregroundBlur_407_346"/>
</filter>
<filter id="filter6_f_407_346" x="654.579" y="556.68" width="121.905" height="52.6403" filterUnits="userSpaceOnUse" color-interpolation-filters="sRGB">
<feFlood flood-opacity="0" result="BackgroundImageFix"/>
<feBlend mode="normal" in="SourceGraphic" in2="BackgroundImageFix" result="shape"/>
<feGaussianBlur stdDeviation="1.52007" result="effect1_foregroundBlur_407_346"/>
</filter>
<filter id="filter7_dddii_407_346" x="234.195" y="206.597" width="1266.5" height="506.332" filterUnits="userSpaceOnUse" color-interpolation-filters="sRGB">
<feFlood flood-opacity="0" result="BackgroundImageFix"/>
<feColorMatrix in="SourceAlpha" type="matrix" values="0 0 0 0 0 0 0 0 0 0 0 0 0 0 0 0 0 0 127 0" result="hardAlpha"/>
<feOffset dy="15.2007"/>
<feGaussianBlur stdDeviation="6.08026"/>
<feColorMatrix type="matrix" values="0 0 0 0 0.0266667 0 0 0 0 0 0 0 0 0 0.0833333 0 0 0 0.7 0"/>
<feBlend mode="multiply" in2="BackgroundImageFix" result="effect1_dropShadow_407_346"/>
<feColorMatrix in="SourceAlpha" type="matrix" values="0 0 0 0 0 0 0 0 0 0 0 0 0 0 0 0 0 0 127 0" result="hardAlpha"/>
<feOffset dy="30.4013"/>
<feGaussianBlur stdDeviation="15.2007"/>
<feColorMatrix type="matrix" values="0 0 0 0 0.0282625 0 0 0 0 0.004375 0 0 0 0 0.175 0 0 0 0.8 0"/>
<feBlend mode="multiply" in2="effect1_dropShadow_407_346" result="effect2_dropShadow_407_346"/>
<feColorMatrix in="SourceAlpha" type="matrix" values="0 0 0 0 0 0 0 0 0 0 0 0 0 0 0 0 0 0 127 0" result="hardAlpha"/>
<feOffset dy="30.4013"/>
<feGaussianBlur stdDeviation="45.602"/>
<feColorMatrix type="matrix" values="0 0 0 0 0.968627 0 0 0 0 0.792157 0 0 0 0 0.337255 0 0 0 1 0"/>
<feBlend mode="color-dodge" in2="effect2_dropShadow_407_346" result="effect3_dropShadow_407_346"/>
<feBlend mode="normal" in="SourceGraphic" in2="effect3_dropShadow_407_346" result="shape"/>
<feColorMatrix in="SourceAlpha" type="matrix" values="0 0 0 0 0 0 0 0 0 0 0 0 0 0 0 0 0 0 127 0" result="hardAlpha"/>
<feOffset dx="-1.52007" dy="3.04013"/>
<feGaussianBlur stdDeviation="0.760033"/>
<feComposite in2="hardAlpha" operator="arithmetic" k2="-1" k3="1"/>
<feColorMatrix type="matrix" values="0 0 0 0 1 0 0 0 0 1 0 0 0 0 1 0 0 0 0.5 0"/>
<feBlend mode="normal" in2="shape" result="effect4_innerShadow_407_346"/>
<feColorMatrix in="SourceAlpha" type="matrix" values="0 0 0 0 0 0 0 0 0 0 0 0 0 0 0 0 0 0 127 0" result="hardAlpha"/>
<feOffset dx="-1.52007" dy="-3.04013"/>
<feGaussianBlur stdDeviation="0.760033"/>
<feComposite in2="hardAlpha" operator="arithmetic" k2="-1" k3="1"/>
<feColorMatrix type="matrix" values="0 0 0 0 1 0 0 0 0 1 0 0 0 0 1 0 0 0 0.4 0"/>
<feBlend mode="normal" in2="effect4_innerShadow_407_346" result="effect5_innerShadow_407_346"/>
</filter>
<filter id="filter8_dddii_407_346" x="566.196" y="475.697" width="296.672" height="227.408" filterUnits="userSpaceOnUse" color-interpolation-filters="sRGB">
<feFlood flood-opacity="0" result="BackgroundImageFix"/>
<feColorMatrix in="SourceAlpha" type="matrix" values="0 0 0 0 0 0 0 0 0 0 0 0 0 0 0 0 0 0 127 0" result="hardAlpha"/>
<feOffset dy="15.2007"/>
<feGaussianBlur stdDeviation="6.08026"/>
<feColorMatrix type="matrix" values="0 0 0 0 0.0266667 0 0 0 0 0 0 0 0 0 0.0833333 0 0 0 0.7 0"/>
<feBlend mode="multiply" in2="BackgroundImageFix" result="effect1_dropShadow_407_346"/>
<feColorMatrix in="SourceAlpha" type="matrix" values="0 0 0 0 0 0 0 0 0 0 0 0 0 0 0 0 0 0 127 0" result="hardAlpha"/>
<feOffset dy="30.4013"/>
<feGaussianBlur stdDeviation="15.2007"/>
<feColorMatrix type="matrix" values="0 0 0 0 0.0282625 0 0 0 0 0.004375 0 0 0 0 0.175 0 0 0 0.8 0"/>
<feBlend mode="multiply" in2="effect1_dropShadow_407_346" result="effect2_dropShadow_407_346"/>
<feColorMatrix in="SourceAlpha" type="matrix" values="0 0 0 0 0 0 0 0 0 0 0 0 0 0 0 0 0 0 127 0" result="hardAlpha"/>
<feOffset dy="30.4013"/>
<feGaussianBlur stdDeviation="45.602"/>
<feColorMatrix type="matrix" values="0 0 0 0 0.968627 0 0 0 0 0.792157 0 0 0 0 0.337255 0 0 0 1 0"/>
<feBlend mode="color-dodge" in2="effect2_dropShadow_407_346" result="effect3_dropShadow_407_346"/>
<feBlend mode="normal" in="SourceGraphic" in2="effect3_dropShadow_407_346" result="shape"/>
<feColorMatrix in="SourceAlpha" type="matrix" values="0 0 0 0 0 0 0 0 0 0 0 0 0 0 0 0 0 0 127 0" result="hardAlpha"/>
<feOffset dx="-1.52007" dy="3.04013"/>
<feGaussianBlur stdDeviation="0.760033"/>
<feComposite in2="hardAlpha" operator="arithmetic" k2="-1" k3="1"/>
<feColorMatrix type="matrix" values="0 0 0 0 1 0 0 0 0 1 0 0 0 0 1 0 0 0 0.5 0"/>
<feBlend mode="normal" in2="shape" result="effect4_innerShadow_407_346"/>
<feColorMatrix in="SourceAlpha" type="matrix" values="0 0 0 0 0 0 0 0 0 0 0 0 0 0 0 0 0 0 127 0" result="hardAlpha"/>
<feOffset dx="-1.52007" dy="-3.04013"/>
<feGaussianBlur stdDeviation="0.760033"/>
<feComposite in2="hardAlpha" operator="arithmetic" k2="-1" k3="1"/>
<feColorMatrix type="matrix" values="0 0 0 0 1 0 0 0 0 1 0 0 0 0 1 0 0 0 0.4 0"/>
<feBlend mode="normal" in2="effect4_innerShadow_407_346" result="effect5_innerShadow_407_346"/>
</filter>
<filter id="filter9_f_407_346" x="326" y="268" width="1082.89" height="322.722" filterUnits="userSpaceOnUse" color-interpolation-filters="sRGB">
<feFlood flood-opacity="0" result="BackgroundImageFix"/>
<feBlend mode="normal" in="SourceGraphic" in2="BackgroundImageFix" result="shape"/>
<feGaussianBlur stdDeviation="1" result="effect1_foregroundBlur_407_346"/>
</filter>
<filter id="filter10_f_407_346" x="654.9" y="534" width="119.264" height="50" filterUnits="userSpaceOnUse" color-interpolation-filters="sRGB">
<feFlood flood-opacity="0" result="BackgroundImageFix"/>
<feBlend mode="normal" in="SourceGraphic" in2="BackgroundImageFix" result="shape"/>
<feGaussianBlur stdDeviation="1" result="effect1_foregroundBlur_407_346"/>
</filter>
<filter id="filter11_f_407_346" x="329" y="271" width="1076.89" height="316.72" filterUnits="userSpaceOnUse" color-interpolation-filters="sRGB">
<feFlood flood-opacity="0" result="BackgroundImageFix"/>
<feBlend mode="normal" in="SourceGraphic" in2="BackgroundImageFix" result="shape"/>
<feGaussianBlur stdDeviation="1" result="effect1_foregroundBlur_407_346"/>
</filter>
<filter id="filter12_f_407_346" x="656.9" y="536" width="115.264" height="46" filterUnits="userSpaceOnUse" color-interpolation-filters="sRGB">
<feFlood flood-opacity="0" result="BackgroundImageFix"/>
<feBlend mode="normal" in="SourceGraphic" in2="BackgroundImageFix" result="shape"/>
<feGaussianBlur stdDeviation="0.5" result="effect1_foregroundBlur_407_346"/>
</filter>
<clipPath id="clip0_407_346">
<rect width="1728" height="1000" rx="45.602" fill="white"/>
</clipPath>
</defs>
</svg>
