<svg width="41" height="41" viewBox="0 0 41 41" fill="none" xmlns="http://www.w3.org/2000/svg">
<g clip-path="url(#clip0_456_608)">
<path d="M40.2815 7.80721C38.7849 8.48304 37.1994 8.92914 35.5761 9.13117C37.2852 8.07756 38.5649 6.42525 39.1788 4.47938C37.5948 5.4275 35.8393 6.11767 33.9704 6.50205C32.7375 5.14978 31.1037 4.25289 29.3227 3.95065C27.5418 3.64841 25.7134 3.95774 24.1215 4.8306C22.5295 5.70345 21.2631 7.09099 20.5189 8.77776C19.7747 10.4645 19.5944 12.3561 20.0058 14.1588C13.1934 13.8291 7.15886 10.4722 3.11639 5.40188C2.38151 6.68281 1.9982 8.1438 2.00708 9.63C2.00708 12.5513 3.45618 15.1189 5.65147 16.6273C4.35038 16.5849 3.07803 16.2241 1.94046 15.575V15.6775C1.93972 17.6188 2.59383 19.5006 3.79181 21.0037C4.98979 22.5067 6.65786 23.5384 8.51302 23.9236C7.31093 24.254 6.05191 24.3036 4.82865 24.0688C5.35519 25.7396 6.37712 27.2001 7.75185 28.2466C9.12657 29.293 10.7855 29.8732 12.4972 29.9062C9.59822 32.2397 6.0187 33.5062 2.33355 33.5023C1.68395 33.5023 1.03602 33.463 0.384766 33.3878C4.14193 35.8552 8.51054 37.1649 12.9719 37.1615C28.0508 37.1615 36.2873 24.3558 36.2873 13.2705C36.2873 12.9117 36.2873 12.553 36.2623 12.1942C37.8713 11.0067 39.2592 9.53232 40.3598 7.84138L40.2815 7.80721Z" fill="white"/>
</g>
<defs>
<clipPath id="clip0_456_608">
<rect width="39.975" height="41" fill="white" transform="translate(0.384766)"/>
</clipPath>
</defs>
</svg>
